<mxfile modified="2019-11-19T05:15:11.325Z" host="www.draw.io" agent="Mozilla/5.0 (Macintosh; Intel Mac OS X 10_14_6) AppleWebKit/605.1.15 (KHTML, like Gecko) Version/13.0.3 Safari/605.1.15" etag="IDj0Sp4YK8cLBfh-lkaY" version="12.2.6" type="github" pages="1">
  <diagram id="i3zWNkJtwnKie6R3KwLM" name="Page-1">
    <mxGraphModel dx="1482" dy="986" grid="0" gridSize="10" guides="1" tooltips="1" connect="1" arrows="1" fold="1" page="1" pageScale="1" pageWidth="2339" pageHeight="3300" math="0" shadow="0">
      <root>
        <mxCell id="0"/>
        <mxCell id="1" parent="0"/>
        <mxCell id="G2r3sRdEXv-sqOphE8NE-43" value="" style="rounded=1;whiteSpace=wrap;html=1;dashed=1;fillColor=#fad9d5;strokeColor=#ae4132;" parent="1" vertex="1">
          <mxGeometry x="1007" y="2120" width="235" height="142" as="geometry"/>
        </mxCell>
        <mxCell id="G2r3sRdEXv-sqOphE8NE-22" value="" style="rounded=0;whiteSpace=wrap;html=1;strokeColor=#000000;dashed=1;" parent="1" vertex="1">
          <mxGeometry x="295" y="2530" width="358" height="196" as="geometry"/>
        </mxCell>
        <mxCell id="lpi5FlPbwp4Xaz6hHfly-7" value="" style="rounded=1;whiteSpace=wrap;html=1;dashed=1;fillColor=#fff2cc;strokeColor=#d6b656;" parent="1" vertex="1">
          <mxGeometry x="40" y="210" width="540" height="170" as="geometry"/>
        </mxCell>
        <mxCell id="lpi5FlPbwp4Xaz6hHfly-4" value="" style="edgeStyle=orthogonalEdgeStyle;rounded=0;orthogonalLoop=1;jettySize=auto;html=1;shape=flexArrow;strokeColor=#455EFF;strokeWidth=2;" parent="1" source="lpi5FlPbwp4Xaz6hHfly-1" target="lpi5FlPbwp4Xaz6hHfly-2" edge="1">
          <mxGeometry relative="1" as="geometry"/>
        </mxCell>
        <mxCell id="lpi5FlPbwp4Xaz6hHfly-1" value="Data&amp;nbsp;" style="shape=step;perimeter=stepPerimeter;whiteSpace=wrap;html=1;fixedSize=1;" parent="1" vertex="1">
          <mxGeometry x="62" y="270" width="120" height="80" as="geometry"/>
        </mxCell>
        <mxCell id="lpi5FlPbwp4Xaz6hHfly-6" value="" style="edgeStyle=orthogonalEdgeStyle;rounded=0;orthogonalLoop=1;jettySize=auto;html=1;shape=flexArrow;strokeColor=#455EFF;strokeWidth=2;" parent="1" source="lpi5FlPbwp4Xaz6hHfly-2" target="lpi5FlPbwp4Xaz6hHfly-5" edge="1">
          <mxGeometry relative="1" as="geometry"/>
        </mxCell>
        <mxCell id="lpi5FlPbwp4Xaz6hHfly-2" value="Train" style="shape=step;perimeter=stepPerimeter;whiteSpace=wrap;html=1;fixedSize=1;" parent="1" vertex="1">
          <mxGeometry x="260" y="270" width="120" height="80" as="geometry"/>
        </mxCell>
        <mxCell id="lpi5FlPbwp4Xaz6hHfly-5" value="&lt;b&gt;&lt;font style=&quot;font-size: 15px&quot;&gt;Inference&lt;/font&gt;&lt;/b&gt;" style="shape=step;perimeter=stepPerimeter;whiteSpace=wrap;html=1;fixedSize=1;fillColor=#f8cecc;strokeColor=#b85450;" parent="1" vertex="1">
          <mxGeometry x="449" y="270" width="120" height="80" as="geometry"/>
        </mxCell>
        <mxCell id="lpi5FlPbwp4Xaz6hHfly-8" value="&lt;b&gt;&lt;font style=&quot;font-size: 19px&quot; color=&quot;#455eff&quot;&gt;WMLA&lt;/font&gt;&lt;/b&gt;" style="text;html=1;strokeColor=none;fillColor=none;align=center;verticalAlign=middle;whiteSpace=wrap;rounded=0;dashed=1;" parent="1" vertex="1">
          <mxGeometry x="290" y="222" width="40" height="20" as="geometry"/>
        </mxCell>
        <mxCell id="lpi5FlPbwp4Xaz6hHfly-11" value="&lt;b&gt;On-demand inference&lt;/b&gt;" style="rounded=0;whiteSpace=wrap;html=1;fillColor=#f8cecc;strokeColor=#b85450;" parent="1" vertex="1">
          <mxGeometry x="660" y="168.5" width="190" height="70" as="geometry"/>
        </mxCell>
        <mxCell id="lpi5FlPbwp4Xaz6hHfly-12" value="&lt;b&gt;EDI service&lt;/b&gt;" style="rounded=0;whiteSpace=wrap;html=1;fillColor=#f8cecc;strokeColor=#b85450;" parent="1" vertex="1">
          <mxGeometry x="660" y="273" width="190" height="70" as="geometry"/>
        </mxCell>
        <mxCell id="lpi5FlPbwp4Xaz6hHfly-13" value="&lt;b&gt;KFservice&lt;/b&gt;" style="rounded=0;whiteSpace=wrap;html=1;fillColor=#f8cecc;strokeColor=#b85450;" parent="1" vertex="1">
          <mxGeometry x="660" y="387.5" width="190" height="70" as="geometry"/>
        </mxCell>
        <mxCell id="lpi5FlPbwp4Xaz6hHfly-14" value="store model in a &lt;br&gt;NFS directory" style="ellipse;shape=cloud;whiteSpace=wrap;html=1;" parent="1" vertex="1">
          <mxGeometry x="200" y="451" width="190" height="109" as="geometry"/>
        </mxCell>
        <mxCell id="lpi5FlPbwp4Xaz6hHfly-15" value="" style="endArrow=classic;html=1;exitX=0.5;exitY=1;exitDx=0;exitDy=0;dashed=1;" parent="1" source="lpi5FlPbwp4Xaz6hHfly-2" edge="1">
          <mxGeometry width="50" height="50" relative="1" as="geometry">
            <mxPoint x="40" y="610" as="sourcePoint"/>
            <mxPoint x="280" y="460" as="targetPoint"/>
          </mxGeometry>
        </mxCell>
        <mxCell id="lpi5FlPbwp4Xaz6hHfly-17" value="" style="endArrow=classic;html=1;exitX=1;exitY=0.25;exitDx=0;exitDy=0;dashed=1;entryX=0;entryY=0.5;entryDx=0;entryDy=0;" parent="1" source="lpi5FlPbwp4Xaz6hHfly-7" target="lpi5FlPbwp4Xaz6hHfly-11" edge="1">
          <mxGeometry width="50" height="50" relative="1" as="geometry">
            <mxPoint x="330" y="360" as="sourcePoint"/>
            <mxPoint x="290" y="470" as="targetPoint"/>
          </mxGeometry>
        </mxCell>
        <mxCell id="lpi5FlPbwp4Xaz6hHfly-20" value="&lt;b&gt;Current&lt;/b&gt;" style="text;html=1;resizable=0;points=[];align=center;verticalAlign=middle;labelBackgroundColor=#ffffff;" parent="lpi5FlPbwp4Xaz6hHfly-17" vertex="1" connectable="0">
          <mxGeometry x="-0.0405" y="-1" relative="1" as="geometry">
            <mxPoint as="offset"/>
          </mxGeometry>
        </mxCell>
        <mxCell id="lpi5FlPbwp4Xaz6hHfly-18" value="" style="endArrow=classic;html=1;dashed=1;entryX=0;entryY=0.5;entryDx=0;entryDy=0;" parent="1" target="lpi5FlPbwp4Xaz6hHfly-12" edge="1">
          <mxGeometry width="50" height="50" relative="1" as="geometry">
            <mxPoint x="580" y="308" as="sourcePoint"/>
            <mxPoint x="649" y="259" as="targetPoint"/>
          </mxGeometry>
        </mxCell>
        <mxCell id="lpi5FlPbwp4Xaz6hHfly-21" value="&lt;b&gt;Working&lt;/b&gt;" style="text;html=1;resizable=0;points=[];align=center;verticalAlign=middle;labelBackgroundColor=#ffffff;" parent="lpi5FlPbwp4Xaz6hHfly-18" vertex="1" connectable="0">
          <mxGeometry x="-0.025" y="2" relative="1" as="geometry">
            <mxPoint as="offset"/>
          </mxGeometry>
        </mxCell>
        <mxCell id="lpi5FlPbwp4Xaz6hHfly-19" value="" style="endArrow=classic;html=1;dashed=1;entryX=0;entryY=0.25;entryDx=0;entryDy=0;exitX=1.002;exitY=0.918;exitDx=0;exitDy=0;exitPerimeter=0;" parent="1" source="lpi5FlPbwp4Xaz6hHfly-7" target="lpi5FlPbwp4Xaz6hHfly-13" edge="1">
          <mxGeometry width="50" height="50" relative="1" as="geometry">
            <mxPoint x="590" y="318" as="sourcePoint"/>
            <mxPoint x="670" y="318" as="targetPoint"/>
          </mxGeometry>
        </mxCell>
        <mxCell id="lpi5FlPbwp4Xaz6hHfly-22" value="&lt;b&gt;PoC&lt;/b&gt;" style="text;html=1;resizable=0;points=[];align=center;verticalAlign=middle;labelBackgroundColor=#ffffff;" parent="lpi5FlPbwp4Xaz6hHfly-19" vertex="1" connectable="0">
          <mxGeometry x="0.0224" y="-1" relative="1" as="geometry">
            <mxPoint as="offset"/>
          </mxGeometry>
        </mxCell>
        <mxCell id="lpi5FlPbwp4Xaz6hHfly-23" value="create a NFS PV and&lt;br&gt;PVC bound to the PV,&lt;br&gt;then a KFservice" style="ellipse;shape=cloud;whiteSpace=wrap;html=1;" parent="1" vertex="1">
          <mxGeometry x="650" y="490" width="190" height="109" as="geometry"/>
        </mxCell>
        <mxCell id="lpi5FlPbwp4Xaz6hHfly-24" value="" style="endArrow=classic;html=1;dashed=1;entryX=0.526;entryY=0.092;entryDx=0;entryDy=0;entryPerimeter=0;" parent="1" target="lpi5FlPbwp4Xaz6hHfly-23" edge="1">
          <mxGeometry width="50" height="50" relative="1" as="geometry">
            <mxPoint x="760" y="460" as="sourcePoint"/>
            <mxPoint x="290" y="470" as="targetPoint"/>
          </mxGeometry>
        </mxCell>
        <UserObject label="&lt;font color=&quot;#455eff&quot; style=&quot;background-color: rgb(255 , 255 , 255)&quot;&gt;apiVersion: &quot;serving.kubeflow.org/v1alpha1&quot;&lt;br&gt;kind: &quot;KFService&quot;&lt;br&gt;metadata:&lt;br&gt;&amp;nbsp; name: &quot;flowers-sample&quot;&lt;br&gt;&amp;nbsp; namespace: kubeflow&lt;br&gt;spec:&lt;br&gt;&amp;nbsp; default:&lt;br&gt;&amp;nbsp; &amp;nbsp; tensorflow:&lt;br&gt;&amp;nbsp; &amp;nbsp; &amp;nbsp; modelUri: &quot;pvc://kubeflow-flowers-sample/flowers&quot;&lt;/font&gt;" link="apiVersion: &quot;serving.kubeflow.org/v1alpha1&quot;&#xa;kind: &quot;KFService&quot;&#xa;metadata:&#xa;  name: &quot;flowers-sample&quot;&#xa;  namespace: kubeflow&#xa;spec:&#xa;  default:&#xa;    tensorflow:&#xa;      modelUri: &quot;pvc://kubeflow-flowers-sample/flowers&quot;" id="lpi5FlPbwp4Xaz6hHfly-26">
          <mxCell style="text;html=1;strokeColor=#000000;" parent="1" vertex="1">
            <mxGeometry x="615" y="615" width="292" height="142" as="geometry"/>
          </mxCell>
        </UserObject>
        <mxCell id="G2r3sRdEXv-sqOphE8NE-1" value="" style="rounded=0;whiteSpace=wrap;html=1;strokeColor=#000000;" parent="1" vertex="1">
          <mxGeometry x="329" y="1438" width="120" height="60" as="geometry"/>
        </mxCell>
        <mxCell id="G2r3sRdEXv-sqOphE8NE-2" value="" style="rounded=1;whiteSpace=wrap;html=1;dashed=1;fillColor=#fff2cc;strokeColor=#d6b656;" parent="1" vertex="1">
          <mxGeometry x="205" y="2113" width="689" height="163" as="geometry"/>
        </mxCell>
        <mxCell id="G2r3sRdEXv-sqOphE8NE-3" value="" style="edgeStyle=orthogonalEdgeStyle;rounded=0;orthogonalLoop=1;jettySize=auto;html=1;shape=flexArrow;strokeColor=#455EFF;strokeWidth=2;entryX=0;entryY=0.5;entryDx=0;entryDy=0;" parent="1" source="G2r3sRdEXv-sqOphE8NE-4" target="G2r3sRdEXv-sqOphE8NE-9" edge="1">
          <mxGeometry relative="1" as="geometry"/>
        </mxCell>
        <mxCell id="G2r3sRdEXv-sqOphE8NE-4" value="Data&lt;br&gt;Process&amp;nbsp;" style="shape=step;perimeter=stepPerimeter;whiteSpace=wrap;html=1;fixedSize=1;" parent="1" vertex="1">
          <mxGeometry x="210" y="2173" width="120" height="80" as="geometry"/>
        </mxCell>
        <mxCell id="G2r3sRdEXv-sqOphE8NE-5" value="" style="edgeStyle=orthogonalEdgeStyle;rounded=0;orthogonalLoop=1;jettySize=auto;html=1;shape=flexArrow;strokeColor=#455EFF;strokeWidth=2;" parent="1" source="G2r3sRdEXv-sqOphE8NE-6" target="G2r3sRdEXv-sqOphE8NE-7" edge="1">
          <mxGeometry relative="1" as="geometry"/>
        </mxCell>
        <mxCell id="G2r3sRdEXv-sqOphE8NE-6" value="Train" style="shape=step;perimeter=stepPerimeter;whiteSpace=wrap;html=1;fixedSize=1;" parent="1" vertex="1">
          <mxGeometry x="575" y="2173" width="120" height="80" as="geometry"/>
        </mxCell>
        <mxCell id="G2r3sRdEXv-sqOphE8NE-7" value="&lt;font style=&quot;font-size: 15px&quot;&gt;Inference&lt;/font&gt;" style="shape=step;perimeter=stepPerimeter;whiteSpace=wrap;html=1;fixedSize=1;" parent="1" vertex="1">
          <mxGeometry x="761" y="2173" width="120" height="80" as="geometry"/>
        </mxCell>
        <mxCell id="G2r3sRdEXv-sqOphE8NE-8" value="&lt;b&gt;&lt;font style=&quot;font-size: 19px&quot; color=&quot;#455eff&quot;&gt;Pipeline&lt;/font&gt;&lt;/b&gt;" style="text;html=1;strokeColor=none;fillColor=none;align=center;verticalAlign=middle;whiteSpace=wrap;rounded=0;dashed=1;" parent="1" vertex="1">
          <mxGeometry x="540" y="2120" width="40" height="20" as="geometry"/>
        </mxCell>
        <mxCell id="G2r3sRdEXv-sqOphE8NE-9" value="HyperParameter&lt;br&gt;Tune" style="shape=step;perimeter=stepPerimeter;whiteSpace=wrap;html=1;fixedSize=1;" parent="1" vertex="1">
          <mxGeometry x="395" y="2173" width="135" height="80" as="geometry"/>
        </mxCell>
        <mxCell id="G2r3sRdEXv-sqOphE8NE-11" value="" style="edgeStyle=orthogonalEdgeStyle;rounded=0;orthogonalLoop=1;jettySize=auto;html=1;shape=flexArrow;strokeColor=#455EFF;strokeWidth=2;entryX=0;entryY=0.5;entryDx=0;entryDy=0;" parent="1" target="G2r3sRdEXv-sqOphE8NE-6" edge="1">
          <mxGeometry relative="1" as="geometry">
            <mxPoint x="529" y="2213" as="sourcePoint"/>
            <mxPoint x="440" y="2223" as="targetPoint"/>
          </mxGeometry>
        </mxCell>
        <mxCell id="G2r3sRdEXv-sqOphE8NE-12" value="" style="endArrow=classic;html=1;dashed=1;strokeColor=#455EFF;strokeWidth=2;exitX=0.5;exitY=1;exitDx=0;exitDy=0;" parent="1" source="G2r3sRdEXv-sqOphE8NE-9" edge="1">
          <mxGeometry width="50" height="50" relative="1" as="geometry">
            <mxPoint x="444" y="2435" as="sourcePoint"/>
            <mxPoint x="463" y="2343" as="targetPoint"/>
          </mxGeometry>
        </mxCell>
        <mxCell id="G2r3sRdEXv-sqOphE8NE-13" value="" style="endArrow=classic;html=1;dashed=1;strokeColor=#455EFF;strokeWidth=2;exitX=0.5;exitY=1;exitDx=0;exitDy=0;" parent="1" edge="1">
          <mxGeometry width="50" height="50" relative="1" as="geometry">
            <mxPoint x="634.5" y="2253" as="sourcePoint"/>
            <mxPoint x="635" y="2527" as="targetPoint"/>
          </mxGeometry>
        </mxCell>
        <mxCell id="G2r3sRdEXv-sqOphE8NE-14" value="" style="endArrow=classic;html=1;dashed=1;strokeColor=#455EFF;strokeWidth=2;exitX=0.5;exitY=1;exitDx=0;exitDy=0;" parent="1" edge="1">
          <mxGeometry width="50" height="50" relative="1" as="geometry">
            <mxPoint x="820.5" y="2253" as="sourcePoint"/>
            <mxPoint x="821" y="2343" as="targetPoint"/>
          </mxGeometry>
        </mxCell>
        <mxCell id="G2r3sRdEXv-sqOphE8NE-16" value="Katib" style="rounded=0;whiteSpace=wrap;html=1;strokeColor=#6c8ebf;fillColor=#dae8fc;" parent="1" vertex="1">
          <mxGeometry x="402.5" y="2342" width="120" height="60" as="geometry"/>
        </mxCell>
        <mxCell id="G2r3sRdEXv-sqOphE8NE-17" value="InferenceService" style="rounded=0;whiteSpace=wrap;html=1;strokeColor=#6c8ebf;fillColor=#dae8fc;" parent="1" vertex="1">
          <mxGeometry x="761" y="2342" width="120" height="60" as="geometry"/>
        </mxCell>
        <mxCell id="G2r3sRdEXv-sqOphE8NE-18" value="TFJob" style="rounded=0;whiteSpace=wrap;html=1;strokeColor=#82b366;fillColor=#d5e8d4;" parent="1" vertex="1">
          <mxGeometry x="349" y="2551" width="120" height="60" as="geometry"/>
        </mxCell>
        <mxCell id="G2r3sRdEXv-sqOphE8NE-19" value="Caffe2Job" style="rounded=0;whiteSpace=wrap;html=1;strokeColor=#82b366;fillColor=#d5e8d4;" parent="1" vertex="1">
          <mxGeometry x="349" y="2641" width="120" height="60" as="geometry"/>
        </mxCell>
        <mxCell id="G2r3sRdEXv-sqOphE8NE-20" value="PytorchJob" style="rounded=0;whiteSpace=wrap;html=1;strokeColor=#82b366;fillColor=#d5e8d4;" parent="1" vertex="1">
          <mxGeometry x="494" y="2551" width="120" height="60" as="geometry"/>
        </mxCell>
        <mxCell id="G2r3sRdEXv-sqOphE8NE-21" value="&lt;b&gt;...&lt;/b&gt;" style="rounded=0;whiteSpace=wrap;html=1;strokeColor=#82b366;fillColor=#d5e8d4;" parent="1" vertex="1">
          <mxGeometry x="494" y="2636" width="120" height="60" as="geometry"/>
        </mxCell>
        <mxCell id="G2r3sRdEXv-sqOphE8NE-23" value="" style="endArrow=classic;html=1;dashed=1;strokeColor=#455EFF;strokeWidth=2;exitX=0.5;exitY=1;exitDx=0;exitDy=0;entryX=0.469;entryY=-0.01;entryDx=0;entryDy=0;entryPerimeter=0;" parent="1" target="G2r3sRdEXv-sqOphE8NE-22" edge="1">
          <mxGeometry width="50" height="50" relative="1" as="geometry">
            <mxPoint x="462.5" y="2402" as="sourcePoint"/>
            <mxPoint x="463" y="2492" as="targetPoint"/>
          </mxGeometry>
        </mxCell>
        <mxCell id="G2r3sRdEXv-sqOphE8NE-25" value="Istio virtualservice" style="rounded=0;whiteSpace=wrap;html=1;strokeColor=#000000;" parent="1" vertex="1">
          <mxGeometry x="714" y="2545" width="78" height="33" as="geometry"/>
        </mxCell>
        <mxCell id="G2r3sRdEXv-sqOphE8NE-27" value="Knative service" style="rounded=0;whiteSpace=wrap;html=1;strokeColor=#000000;" parent="1" vertex="1">
          <mxGeometry x="874" y="2545" width="116" height="38" as="geometry"/>
        </mxCell>
        <mxCell id="G2r3sRdEXv-sqOphE8NE-34" value="" style="endArrow=classic;html=1;dashed=1;strokeColor=#455EFF;strokeWidth=2;exitX=0.5;exitY=1;exitDx=0;exitDy=0;" parent="1" source="G2r3sRdEXv-sqOphE8NE-17" target="G2r3sRdEXv-sqOphE8NE-25" edge="1">
          <mxGeometry width="50" height="50" relative="1" as="geometry">
            <mxPoint x="644.5" y="2263" as="sourcePoint"/>
            <mxPoint x="645" y="2537" as="targetPoint"/>
          </mxGeometry>
        </mxCell>
        <mxCell id="G2r3sRdEXv-sqOphE8NE-35" value="" style="endArrow=classic;html=1;dashed=1;strokeColor=#455EFF;strokeWidth=2;exitX=0.608;exitY=1.017;exitDx=0;exitDy=0;exitPerimeter=0;entryX=0.5;entryY=0;entryDx=0;entryDy=0;" parent="1" source="G2r3sRdEXv-sqOphE8NE-17" target="G2r3sRdEXv-sqOphE8NE-27" edge="1">
          <mxGeometry width="50" height="50" relative="1" as="geometry">
            <mxPoint x="831" y="2412" as="sourcePoint"/>
            <mxPoint x="770.0344827586205" y="2555" as="targetPoint"/>
          </mxGeometry>
        </mxCell>
        <mxCell id="G2r3sRdEXv-sqOphE8NE-41" value="" style="shape=image;verticalLabelPosition=bottom;labelBackgroundColor=#ffffff;verticalAlign=top;aspect=fixed;imageAspect=0;image=data:image/png,iVBORw0KGgoAAAANSUhEUgAAAggAAADtCAYAAADa6o17AAAAAXNSR0IArs4c6QAAQABJREFUeAHsvYefY9dx71mInePknAMncIY5UxQpyVa2LdtPb7326r19/j/2/9i1/T62skWJNCmJFMWc00ROzjn0TOfcCPv7HuB2o9HobuAC6O6ZuYfEAH1xwzl1L079TtWvqkJpNQtaIIFAAoEEAgkEEggkEEggRwLhnM/Bx0ACgQQCCQQSCCQQSCCQgJNAABCCByGQQCCBQAKBBAIJBBKYIoHolC3BBt8SSKbMEjkem6Q+p3hpezKRNv6bqYUsZNGY/g2ZRcIhC+tvvVlUG9gWtEACgQQCCQQSCCQwVxIIAIIPSaP4k9L10Df0vwMAfBjUxqGE0IAa24eEGEa1LTmWtv7+hNt/pstFIiFraIxaWO+10bDV6j0iZNAUC+s9e6T+jkQyn8N81gsQEbRAAoEEAgkEEggkUEkJhAKS4sziZM2Psnerf8CAXn1jKesfS9qIwEAyaU75pwAC2hHg4DWsBxzLMUnMC+lZNHkobdGI7AbaLSTnj7Mg6GRhZ03InDUa9UCEWV00Ys3xsDUITNBCHOje9dl9Cv4JJBBIIJBAIIFAAv4kEACEGeSGYh8QCBhIJG1wMGXDw0nnMhiVrh+Rwk9qB9wHY9oAEJiLFhYWiAkU8B4VcKjRhxgAQn/X1UetvjZsjQIMdXoFIGEu7khwjUACgQQCCdydEggAQs59RccPyDIwMJyyMVkJAAiDAgjuJXAwrO35NAJW+nG5AMa0Hyv9mD7nN6fUc6wA+d/ztygKzgKB0gd4YHDIbaMjSWetyN2W+5l+1NVFrK4mIotCyOpjEautEUjQds5ZK8tEXH6KADTkSi34HEggkEAggUAC00ngngcIY1LGI9LOSSl4AMGt4YTd6h2zocHkOBYAONBC2hJhZS4ti/9feld8ACnjhqgNDyUN83+tlHR+Q0HXCzhkPQD5X7u/x+SbgK8A9wDXBf3yGtaJgYGEs1R423BnOPeFXBxJz6+h/ngAIKK+NKpfjs+gazcLOLTKukC/AQoQH4MWSCCQQCCBQAKBBKaTwD0HEJxSlaJH/6JYu7Qyv9k3ZgMiEbItoX9YwUNAxCKAGsW3zztKFxIhEQa1Uro1MAf1P0rX5ZtiP3bMa9gUPH5A3lfjfzo4oGuyH+fKMyBY2vUpszv9HJSFg36OjMjCMZgYt2zAlXB0h7z+18ia0KS+A1aW1EWtMR5xbgn96YiO4x0JPgQSCCQQSCCQQCABSeCeAggoYVbpPaNJ69erry8hdwJkQylVZ9Of0O4eGXAcDKDlpU2jDhQQPZABBvP1FDn+gy6eEkhIyeJAY3zDGkufAMOgLCBsYBv/OFeDOg2Aicvd0FgfcYChEeuCwALAYWL0HBS0QAKBBAIJBBK4lyVwTwAELaYVgpiyblkJumWqHxZIgGQ4InBAFAINngDuAVwGMb2wEMRllmeFDQkQoHAnNCwgwyJNjgkAYWkY0VgBC6MwK3Ma+RbgKNQILNTJMtLWGLMWkRwJrQxaIIFAAoEEAgkEErirAQJGAfIS9A8lrE8KslMWA1bXrqH4BQLIKYDuh2jYIAWJzx4fPYrzTm+4G4blihgQPwIwhDUBrgNuCaIvvIZVobUpZm1YFSA51orgKC7EHYKJvGEE74EEAgkEEggkUEEJ3JUAgVX0qEztA1pFd0o5dnSN6u+JUETcB7gK4BMAErAQ1OkdKwKkgrttDQ2nAXCAO2JAQKlXlpSRbFREEqSg/AyABF51cjcsa49bm0ACMolJViRjCloggUACgQQCCdxbErhrAIJTgFKEuON7IB52j1qPFCFgIaFVc4ZMKEuBFGBzk/IFKJdALBuRgPqDaHgvNJI3Qc4clqD65HogOiItmWWImRmQACiAk7C4JW6Lm2PWJFnhebhXZHQvPAfBGAMJBBIIJDCbBO4agACvoFc5DPplSu9UmGK/lF9CVgQaBL0Ghfw1kieAVbH87xGZC+4NSFD4EQAo4G5Iku9BAOG2ZIYrYrxJODUCUE1NEWuT+6FRIKFFuRUADkELJBBIIJBAIIG7XwJ3PEAAAvTKlXBbK2EIiCNSeEMCCSnpOlwJJA+qlXKrw68ucBAouKkPNQ4IABVuhzFRNHoGxsY5CpncDpKfwEGbXDKLFCLZIDkGLZBAIIFAAoEE7m4J3LEAQQtgRSMoB4DAwE0RDzvlThjKroAdr0BlqGpFuGuS5cDxC+4RF0K5j+uIrDC3usdcsiYiHwBaNGeFEYlzCSBB72RsjMuaEIg1I5/g30ACgQQCCdxtErgjAQK8AtIf35LF4GbnqA0R0iczOT6DGlkLGqXEmmQ5IBIBxXb30Q6r9xhiTYCzMShw0CfQNZxDZiSJEx6GJlkRIDK26702IDFW72YEZw4kEEggkMA8SuCOAgjCBYrtV/ZDWQ2u941ar8IWifmHos9KtlYExCVtMSNrIMz72bIXzqPcF/ylkTNAgbTP/bLMUK56DE6H/ifaA5dNW3PUVjTFjWRLXtbJBT+woIOBBAIJBBIIJFCUBO4YgEDtAXIZ3OoZtS75y1nhUlCJBs+AzIBEJmD6Dtj2Rd37onbyyIzwOm7jegCQqQHI4pI3Ml8kEuNivSg7zfagBRIIJBBIIJDAnS8BeeoXfiPhUa8U03WBg1s9E0qK7IZNDUrsA89AVgNSCAetshIAbNUQ9thAjQgVjZLLgURLAAX3rs/knMDts6w57giMQaBDZe9BcLZAAoEEAgnMhwQWvAVhVIqnT0qpQ+6EmyQ8ktUgrOyHhCrWRiO2GJeCGPblNla+VDgEYigzgCt4VO45848n1wDKU3rWKVuULyt0rg1Pgs8LPaUzLodeuRwGdD/gfpBDgYblZvmiuC0inFRWhaBaZEYuwb+BBAIJBBK4UyWwYAECq9VRmQ46FKFAtUUIc+Q1QJlSXrlFRETM22RELJeEyDnJptgsXzrcBaIjBqQIUeTwHujLTC2j5HUSHcH+hRrbhwRuSOPMLuQggOBHcSVqP3A0haQyERdTz5Bxm4hCqIPn04UCiZGxYD0gQyWAwZWb1jZcDi1KQrVKCZZaBBiCkNKp9zHYEkggkEAggTtFAgsSIKBASY187uawy2+ACdtbfeNOABxQL6ASKYBzwUFMf/A3ChDOg/S19SnsL0t1mHRP6SMNcIDixwyPK4QMhdM1zukpd46bsCBkAIKzINCBvMameoEXIjUw5QMiPALm1L3zDq7Sn/SVnBNetMOgCzEV2CFfgsiLy+VuWCxuiDfeKnUjOG0ggUACgQQCCVRJAguSg4DiuXh7RG4F8Q3GMqqYhD3tSvtbLzIiGf4qAQ6QaY1W7w3iLmBB8JQtbgAUW1gK2dvmyZ8VNAWQhFlc4y0hzZ0cC+sb+eKlOGdqgASveZ+pleC1QseH9PWgrsleKObUmLe3Vu3q/3wUlkI+1G3gvjhMI0ENiTwKcbSrN2GjsjAMKl/CqvYaZyGZ6HHwKZBAIIFAAoEE7gQJLCiAAN9gUIrltoDBddVSwHLglSWuy5qvYxUmIsYEAQAJhRoKf0R9GvHQgHbCPkAJZU+5e8elPGe8t6GC7wCDMcwa2Uapaq+lVGiJr7wRzHVp6phiHptqM4CKa5ORcUwExm69SLRE+GMr7iBZPQKXg3fXgvdAAoEEAgksfAksGBcDpnMqLxKpcFsvdGBEirtJygWXQrWyIdZrBdwoi0S+8mJRP6ROXO0fc+/5t3JCXed/M7d/e8DAuyplmr1oDr7L5IPwvq3eO2CKPAkdSlxF3gTHS1AH4pLv0ra4i3BozuanqF4vgjMHEggkEEggkEClJLAgLAisjkl+dK1rxLrEjgccQD5sEuGtWZwDVp+ez71SA/fOQ5GntFb/TTkrXMDBiNwGPVoB4+FYKGDA63Pue37fsHaMJjP5kQEI3sodN8CEEyX3DJX5zLljepqWCAyEQqPWpyyX3EesQESfOC+KyIsBSKiMvIOzBBIIJBBIoNoSmHcLgrMcCBxcuTViPYpYIFIholUn4KBV4IACS2UT3ZxyzIjSKao8qaI8a2QKd1EMeodoiIm8d1S+dABE3v53yp8ABMel0DuREo7cOO6MqM4okBahqF09qo8hV5ETnjoSl2VjkciLK8VJaJa7qFIckuqMIjhrIIFAAoEEAgnMqwXBWQ5kjsZy4IEDOAeNRCpUCBxAWajTP16mhDEhhCFnNcjc/DEtcwEBg0IJEAGFD5y/H8vCnQwOGB3ABq4E9gSKLsGTYHyQGquVbwFLAnkpWpp1UV2rWyCB6AtAQ6esQ9pk1pYFCXQmaIEEAgkEEggksCAlMK8AYUCExBukTpbiIO8/4KBBUQqV4hx44ACOgaeLACUoyn6FLzoTuP72SH+yit+1zQEFyRiVDHCIpkICCXqnsEIVGhEOYYGElOTbJ+IinASyL95ShENEF66VK6LOuylVuH5wykACgQQCCQQSKE8C8wYQCBXEBE3qZHIc4FZwloMs490v5wB3AUEJqD3IerngAFHBtK/TDreHFK4IQrgHm5erAWJmvUAZoKEaZMa43EOLWuPiH0wQF8lv0aEIlSbcDI0xR2K8B29BMORAAoEEAgkseAnMOUCAA0CGxEvKc3BNigJwACGxUZwD3Aq5SYBKlZ4HDppl4hbeyPjf0X7ZxrXJJqBL6t87l1vgjcfPO9YDr8H/6Fe6ZESE3MmpkIEL3h7lvXOueGyCuNgrEw3uBvJckASL/A/LBSACPkJ5cg6ODiQQSCCQQDUkMOcAAXBwvmPYbvaOOYa7sxxUiJCI5aBJ4ADCIWAhvxG22CvXAlwDvd3zDbCA6wFRDZEBMh12GSErKZgMSAjJkhBzORG6dN8BamSf7JDrIV6btEW10XEXUCWvHZwrkEAggUACgQT8S2BOAQKJkG4NJeyWVpJkSMwQEsU5KIOQCBAg0RFpkgEItQXAAQoJd0KPVstUhQSk5K6k/Yvv7jgSWWBNGJJ9xQEGyRKZlh09kiMeR1xsEgbRxXpVVwPLUa+iViJijwJQWoPaDTnSCj4GEggkEEhg/iUwZwCB7IPdwwm7kbUcMPQasiPKD+03zwHgIC5A0CiuAebx/CYd5PIZCBeIlAgxUSWKBQ6CVlgCgAReGWAga4KUdyVBAsTFkIiLFHgaUmgr6Zg702KGch8V2dAo649uZ9ACCQQSCCQQSGABSGBOAIKwgXWPJOyKOAe9JELSBnL4kz7ZL+fAAwckOIJ4mN8AB4OJpHXJYjAghEAfqGMw1y0kp3soPeHPSOnvNJ3LNnoeUiRByI1BlR5VyzrN4OaxwQ3ABQDVU+J1SrtSQCGqiJJmuZRcsScBBGo39Cqy4RbgoBHS5ETEyTyKILh0IIFAAoEE7nkJVB0goJMhwt0WMOjJggNi8Cm8RGlgP4oH/QkocOBAf+SrU8zkA3JhkOwoE844N4REZZ3K2ND1DigICQhERgcsMtyXedD09cjQoCVGRsYfPKBCvK7eYrU1AgdRS9Q1u3c57AUUVMFRLxfRoXeVXZiTRp+gccJLoKeZaIcKJKzKnqtJlThpPA/DyoNBRMt1pWhmeEubYtYAKglaIIFAAoEEAgnMqwSqDhBYKRLK2Ek4o7IkErHQ3hKzZoUz+i28hH8ctwIgIV9nYiK/LVdGvwAC6ZLxdWcUXvXlHB4bFvuu19J9vdbaf8OiPbct3N1h4cEud3FW5klZUpKJyQkXIlEBJZzx5CSorbdUfYtZc5uNNC+ynqZlCgdsshTAIRqv/iCyV0Bm9Nc5ZOAvVvDK3PemuokTAhKGRpQwSyABgmmDIhuCFkggkEAggUAC8yuBqgIEShd3a+LvEhltWKt59F+dEiE1iZRI6t1SG5YDwAHlmfM5BwCDQfELhgVCumW6BhxUu4WTCYsN91pNz00L9/dapO+2pQUKUgN9Vj9wy6KDPRYa6FVc58B4V1zRR0CLNC6vSZpX4wtpbFYnNp8AQaShTUCh3SL1TZZuXWLpplZL6jXcvNQSNQ3OHTF+4ip+QJLkTpAtw6Vszi9s5efSVIFsVBVIUmsPi4+AXAb13qlnhWRZRKMIKwQtkEAggUACgQTmSQJVAwgoP/zY1/tGxQHIgIPauoizHMA/KLV5boVChETAQb8UWKfACCGMVeUaMLCRYYvJUhDv77TazsvWcPWkhW9fl838lgbdZ2n1xTXGmTdUeQoyTn3AgSNGZDFCFiy4Y/t6LN3Vq2yHl60lri+kTENNAgutiy25ZJVFV2+zkdblNtLQbsm6RvlbaqZcJ9OByvyLPIekyBlKjWBCnQZRidwFJLKqV4XHQZEXh+SGAiT0yJoQVwXNmmYiKXCvVGYMwVkCCQQSCCQQSKA0CVStWBMrzmvKlHhVCZGGtaLHctAm3kGjqPGl1gFASRCt4BESc3UG4KBPoKBbCmZA75jF0bUVb5ANx0YsMtRvqY5L1nzhiDVdOyXLwW0HGBznADIiWs7rQG5HC3Uou19KytdZFvL34XvOwUsgIZ2KOn5CuEVuiJZl1r16uw2t2W7hxassWSuLQkTfV1mj0hUUN+TSSoAEBz70fNzgORGQ5PxN9VFbtbjGluqdIlNBCyQQSCCQQCCBuZdAVSwI6LVBTfo35VNm0ufvGrkUygYHUn656gIXRi/gQH59VrjVAAeOeEjkQX+3Ra6etvaLRyzScd6i3bcsPDKo9XTCXXeSXs7t5Ez3NLsfx44TELOgwR3mnYdtcp+ElLLYUiLzdQ9ZpL/PWrtvWNOVY5ZcudX6tz1iI23LLRWrrSpIoCujyEOFGok4KBckQFKNU6BLhNWkeCpj4o70K1fGzU6T9SQszopCI2eSYfBdIIFAAoEEAglURQJVAQh9Ws13yJc8KHAAOqiTa4FXqZYDRuxxDvIJieOWA7kVAAdELlS6EaIYVQRC/eWTFrt0zMI3L1ptz3VZEeRGEP/AIR+5DCaBAz+d0Co5HFL/9b8umTlvofNIU6IsXZjkqKwZiRELixAZ6ei0pq4b1rh+m/Wv222DrSsKHV2xbTLaqOKlchkIJNQJ+Pm5r7mdoWAUkQ0DSqAFQEAG/QKYPEMRyYZrBC2QQCCBQAKBBOZWAhUFCKhoSiRDNLst9wLG/hpN/EQs4GsupaF0cStASAQk5DaPc4BbgVC8aoADsefkEL9p9ZeOWMOp/Ra7ftbCo/3qBqPMgoLJ3XLb/fzjAIbGiJuB0MjMFbJn0h9uO+LLu57zZozJojB0w2oGb1uoUzyIvgFLr9thgy1LLdSgrERER1ShARJIOkXfa2VHKQckcI4aWSPIqJlOidAqcDCm+9qhZ6hW26P1IkcGjMUq3MXglIEEAgkEEpheApUFCM7kr6gFrQQHRTaDjAg4aJb1oJSQRhSGl+cAkJDbCFuEkNgly4HHOcj9vhKfo6My4Xddt9DZw9Zw9D2LaXXuQg7Ck1R3JS41+RwMFSAwkVcp831S4EEWBgckJh+hqAdtiKhfiTFLXbpoNX1wJC5aYv1uC6/dZmMCCqmoKiZVoSENuCY4furz7lOpl8PVAEfFWSeSCokV+MCi0FWnAl5yNbSKyBi0QAKBBAIJBBKYOwlUFCDI0i/TcCbxDUMg5wGWg6isAKU0yP9NMitTXyG3wTmoFiERCz9Ew7BM943XTlrjyU8sdPGEfP2dUn8s7XN7Up3PbrjOWpIlLaKBdd1QjM7lXTP73fhW9osIWQx2Wt3ZfovfuiILyFXr3fm0DbatqipIwObBf5MZIuM9K/qDAxoCkyN6kHplPQAsDOBCGpMVKgh7LFqOwY6BBAIJBBKohAQqBhBc8R1N5lTrG3LWA5ESZTKGhZ6v22brOPujJ3PxAW6EPnEaurKExEqHMoZSSYsNdFrj6f1Wd2qfIyKGyV/g7Puz9bhy308CCZ4lIV+AUpzpMW2U5cBZELzLs5/GERoZsuit65YWSaBFWja88wnrW7p5ggjp7V+hd+psAKJc2uyS7/bkTuBSqJdbql+hjs5apMJOnSIxQogMciNMllXwVyCBQAKBBKopgYoBhFGt+m6q1kKfSvhKR6kQk1mjVoOlJtXRQtHqZXHIT8FMygBKNVeDkEjCo3jvLWs4I3Bw4nOLiIwYSgxlzP3VlP40554EEqYjLQIO8oFD7vnkyzclbooc3Wf1Q0qYvK3f+tfvrIolAbAmbKiWslpZfvLvXW63ZvvMsbUCBHUKcRyUi4Hsm92q1VAjImN9u87tLCyznSX4PpBAIIFAAoEEypVARQACpmASFHVrtQcLPSIfQa3yHRDa6OoIFNlLDxzAWs/VfWO6QC+ERF2j0oTEsPzdMSnS+vOHBQ4+y4KDYRVPmr7TGBXoIH2Ubpxx3+nPMvM3TvlnhaBLTBgysmTFSZYD7TCFyOj6pxDM2zctpnDMxsSgQiBjNrRikyXjSmFY4cZ9USJE3W8RUwXyygEJZNkk2+aIUEdqVEmaRFrskkVhmTgKURWzmhEYVXhcwekCCQQSCCRwr0qgIgCBYjudil0nuoBWV5eZ4LXoK6nVsUrMAweckjLNt3R+gEKlW6y/yxoufGX1Rz6SW0GWg+TI9AqfgkkqqOSSEaG89UqLTAer0PEUKt05aULIiS6sIUGlR1kNCsgUkGLTEBkdf0HRF9HzR6yZ/eI1NrRkrSWrUNeBPBRElWB6KQckEBGBSyGmZyEhqxHjG5NBpFOuK0BnfprtSos9OF8ggUACgQQCCYhHWK4QmLwhkt3sGtUknlFgtTIF1It5XjT7QIoWvQcRHr3rNXduKRyIiegd9FulGno3nBxVjoNTVn/4Q4GDSxlwwBeFGppZSYissV0HZsTmkhuNjVmIbIrKSVDZHmYsE0gRE75T9IX6pW0ONBQiMnr7I8ihAYteOWUtJz5yoY+Di9ZYSpkXK9mc5HQtDyTUwTb12ch/0KQImIR8S6OyIAwJKNzsGrE2IY+YXFf+z+yzQ8FhgQQCCQQSuMckULaGGNIKGvP/KBpcs3a9UirX1ZbmhwYcNGrFiJ/ZaxgLBnROSIlYEGDJV7LhWmi5ctTqz3wpt8IF5R9QPoHpwAEXJkNh8xILLVJ+AVVfHG+jyvegfof6OiytGg3oYlnBK9pQhuOZFjmzrjGFpJjVmGmttNk5H1BQ4yHd1WORY/utRYgivP1x6122mbNVtHGXXBVIBFFGw4rQCFlRPAQFljgXyrDcV/BQagU+AytCGcINDg0kEEggkEAREsjRdEXsXWCXHk3gt0UiI/sdK9lGF7devIYkAhJSYp1eufwzAEGflAG5DjzXRYHL+9pEngPqKOBWiF45KfP8DG4FUE+8XuBgsQMHVt8wGQHEcS9kwvzk8LeQzl3JhkzTCAaWZq7Oxd2QBQWTrse2AkDH7QpxUSmioyf2WThOCel2Cze2ajwTwGzSucr4g3s2IlACn6BQN2c7NccQAUNEA7yWUUWwYEkhkqWlTuetUgKo2foVfB9IIJBAIIF7RQK+NQO6Ck5Aj7Im9gok0OKyArjMdyUkzQFKTAEHOjmhc5ASK807cOGMym3QcOpT+eUPi+DQVdCv7wbEP/AAUKLtS4V+VIbZMw8kVBdBxZuccm1SxsL2ZWbKXOjM/eMHV+YD+nsSGJD2DAHtCtw9yIuOwAiegA7ggQrOwTHK9ZBWCGTkwjGrkcshMjIgPMGOlW3ct0EBhDFZmPwaExhzIxYpcVpo0D2o00B10EqDxsqOPjhbIIFAAoEE7nwJFFAxxQ2K1ZxLdczKVo3IhaammCu8U9wZpN+kACj2k6v8UCYjMkf0SAno/4q36PCg1dw4b6FLpyw03D+LQqeDMZValuKvr5eGSjhrAZ1KD48oz4CsBZhOyD3Q2KjUxgIQ2l+quOL9LnhCRO8BgLwd3GaIjdN8X69ESovOHLC6rqsWVhbGajSeEaJb/EaewGEBcPIivDElWff3J61TgJRsmtMMrRpDCc4ZSCCQQCCBe04CZQAEcQTEPSDVLvqQfAcNJWZNxI9MCWcs6F4DHHSJlNY7SlREhRGCVrUx1SuoP/aZhXs6tcKe5fyyFqTrWmQaqZO1YNTSvRRpymQvCtXWZkCDwAHbAQ9GyeVaWROqYUZAQDly4s80AECvQg3QBQ8hF3xN2q+nx6IXT1vTpaMWdVaESd9W5A8UuPfye0IHEuRmaGyMuNDJFJYJIUesS0ELJBBIIJBAIIHqScA/QND83NenwjrDqngo60GDj6yJuBfyi/xgmqYaJEWfKr1CTKlkc+raWYtcO6dESOIdFNatE9KW6T1ENkURGk31DEL1ddL9WZGJOZceGnZggO0yobhIhtDooLRihZUXyl4yntJfl0kxKyW9QVyUB2GiMb7sGOmSIzZmdw+JzRjuu2WRs0dUuvqGi+iYOLByn7AiENVQjksAC0JjbdSNn+5DXBxUQq6KPyCVG3ZwpkACgQQCCdzxEvAFEFDi3UQXCByQ6Y6QtBhhjVM02DTykdKiQiOvrP5yOwIKBiCkVRgchKSkIiIP1t84a/VXjisVcZ+uW4QSR6vquBAAAVt9rj9dVgIHFuAkKLeAo9oPyJIwBkkxq4WnGb6fzYg2X7zOUJF7ByEn5go050Jucy55keMIzbx2RZEchyzWcytn78p9RBLwEMoBCLih9HhpaBqFTpjQMzJE4qzc+1G5LgdnCiQQSCCQQCABSSBXvRQtECb7TqXNY+KnsajWIs9xCoo5CcqqTuCglhCGnDag82V8y5VVsBAT63puWKvM6U3XzljE5A6YRpHmdGfio3gLJuVPGKPLIy13g8WVS7qhMaO1BR7SA/3iJVQ2gmGiA0V80nggIY57NyRCZ8jwRClRO5JizrjBPDYwaLUqZx1VeulMPGER1/KxCzwErAm+m1xYUaVg9kJRhwQiexTlIgeP71MGBwYSCCQQSCCQwPQSgNdeUmOOByAkWeXrMwqJULY6leMtKr2uFJSwQWY1mHNlFAh+ZbIyVrqR86BBYY01107LPt0tJFOCUpGWTd+6pkGLoLh0tawIUkkDYv7DQRC7Pg33AJIfoGE2TkOlB+YNI0fpe5dwX8FRiE7PQ+DehQSW0j0dZopoCLWtsPSydd4pKvpOhUasNvXk0/bRYlkSLImTsCCM6jUgC9Yi4TQhvqCVKQH4OEm9IIKm9Izz2eWzyG7DOhjJhpZGtCLgc1gv3ou2HJbZxzvh8LTmi5QWOoDhpOaMUSVSG9MrKZkiW2QVU8rzGi0w4nrxeYppcA4HSp/oW1Lz2KhyutBX78X991oYgC43K/e7pqZGWU6j7nNU7zwHQcPIjF6kFlFS6iJhI6Ojeo1ovlJlWulMr2EJjsgljex48RzwjkzDWjSHxld53hHz914yQBjFvSDrQa/qLiTkW65T3oMGFdZB6RfTeJQapSRqCGHINmRHtsRhTf4V56ZzX1Dut28o46HAQSjXSe/1YJZ3XAyY4BXamG5cpIgFiIsxZzFId6sctDIphrAuEPY4h80jKOYnRaILPIQzgYOJbkpxa1zNl09aRCmYe5euUZ4lIYcKNm4BjJKUEjjxPtmxVNyFKBneWCN+ih60hMAGdRr6VBI62agJttiHr7hL3QN7ZcA9yiEzqUk5CPT29A9YX7+KevX2WndfryY7okb6xfcYdBNYS0uLUwqNiuhpbW2xxpZWW7xokZvgUHxhAQfv/R4Qohsi8uPlgJXkOTY06GTWjSy7u+zCxUt27cYNu337tg1IlijYNWvX2paNG23Tpk22cs0aJz9kNxfN66v33tffZ7dv3XZ9PU9fr1+3S5cu2cWLF9yYvD7VakG0bOkya9f93rBhg61cvtyWLmrXtqVW19wsCpY4WjwDevHuJiDv4Lv1nfuevffIE2B1S/e5r7vbbuqenz571s6cPWNXr17VfDWhG7jX7e3t+u0stmWS40bJc4lkuUKybNX2WF39+O8IWTp5zpMMSwYI0uEu/W1CCj2tCb9WkQsNypxY7CCABVw0Bx84IUNMHM66LCoqCym/pCIX7PZVhTWKIzCBS0q7DHkP+rpkhtf7YI8GIahDgQDcDyqGNJkdWNqpfe+NJcQbjz46wEACpSygn07Pp4V3cC55+2kmsFj3NavpuqyIhn5L1DS67JC++zXNgXBXsBBBOiwVJDBMlzhJYDQpwEbypBGsCDof0TD5ZNdpunDPb8ZSMCZXWFdXl1Ncl65ctctSCNevXbWr165blya3UYHd4ZFRpyBG9bwz8TGpoST4nccFjlsFDpYuW6rQ5iZra2uzFStW2po1q23NylW2fOVKq9G+90LrlbyuXrlil3hl5Xjt2jW7KaU7gpy7ewRk+2xIIdEoCeQI0AJYbdiw3p588il76plnbM3q1W5lXk2ZJWXlpL9nLly0CxcuZF/n7fr1GzYsYOP1tUcRTt3aD6XnNVa4jQrlrhc4RLk16XN7a6utW7fGlq9YZSvV/7V6rVyx3BbpeahpaJB1+e61LGApGhVwvqx7fT4rz/PnzwtYXdT97hUYHHCg8HZnp/UKcGNZ8Bq/obq6OhH7G8Z/P02NDbZqxQpbJRku129ojYDj2lUrbeWq1dYoADZfrWSAMKoJ2ZV0znoCYhpsrEj0y26kU86lHmA9wJ88rFVhOUS26QQYkQKvvXTcIp3XxOIvInJhuhOxnXwHQ73qsF7Z5uln7++qvgtVQbjUs+nauIKf4aJENegWOUAw7W6cc3DIorevWf3tS9a/bIslw9juK9twI1EWOq6nzs+iP6Tx1wiQDg6FHEBI6HykXm7UtqA6w8z3alCr146ODrt0+bJd1erQKYhLl+2iFNtlbeM7VrkosmIaZmYUXVRAubm5RQBhha3VpLZOr83btkr5bbTVmuwWL17slMpcrZCL6Xs5+2A6RoHe0Arx0qWLdubUKTtz+oxdlAyR7c2bN50cUQqztVbJ79ix43b23Dn7/ne/a/ft2CFak3hNFWy4OboFBq9KkV1Rf89pRXv46HE7J2WGQmN1C4DJBQPTXf7WrclEZkzjiwR0uMerVkmp6X6v02vjhnW2ces2W71mrQMTHrCc7rx30vZBWdpuud/RJbsikHXk+HE7cfq0XcyCBH5HAOrZGgA9twEamgUEFi1e5Cw1AIR1q1fZps2bbePmLQ4wLFu2zO2DFWqumvSNZtkS2rXuUTtxbcgpc6IXlrbFrU0JkoppmsetRdpBlIXxhssCwiM1F1hhVrKFtFqqvXXJ2t/7tWL+Fb2QnLmMcyWvXey5kL5T4MUcoH3TkpFwCjb72Rv7K/QRzoUjKM5wBPuFlq+2sYeeso5dz1uitrITlXfpqAbbpIJLRCaU2jDnkXvjtgqDDQ5mwmvbW2O2sb3WGglzCNq4BPhZJ7T672NC08R+Xorhq0OH7PN9+6WUjtpFgYMBfee5Gdifz6U0z2rIOwCAd5TGcplNH3roIXv44Ydtx65dtmn9emNyYwUa0/d3WkM2I8PD1itFiqI9duyYHTp40D755GOn4JnsPfnx7r1mG6cnN4DC//qf/9N+/N9/LHntdrwET7aznWO67wF6ABkAy1Hu+5df2gG9n5Yy85RY7r2f7jyzbaef3jiclUnAca1cKI8+9pg9qGdg586dzoTeJmsD1oeILBF3WmP1D+BDnufOnLED+/dJnvvsKL8juWVww3kuJu693+bJMleeALCdO3fYY489bvfv2WPbt2+3FfotYbmLS9bsW81W0t1i7B4bHRdBg6rtxdH6JbQp49E54R2UIddprx5WGF+k95aFe29q5a1iTKV1ddrzVuwLFDhzsmRZTN+QUUFwoO3jrobcznFeqjzmtmn2DSmngin80253uMyKzlIx5Wblnsj/Z3evfTzX+DfrxF+JOouVQiedj1zAsllPEG4LH+f0P4qFeyQrmAFNaNeuXLYDh7+y1994ww4c2C+/6E1ZX4aUu2TYrXJKBQT5I/YmQ969c7HCxsyKEnrvvfdsyZIl9qiAwjeef972PvigM0U7RaFVULUnt/z+lvo340KWmIzPnjxlX0oxvP/hR/bpp586hQHAwm2Qaz4u5Rqcn2N7dK9efuUVa5ISbW1f5CwvmPRLba6/AoWAg2Na2X76ySf22Wef2T71G5A4pLwt9Jd7VKnGNXl59x95nZRV5YosE6+99ppt1gr46889Z48/IrB4//2yNixxrpS5XAX7HSv3BmDYIdl9/vnn9pnuO+8nTpyo6O/I658nS/72niksVQCTgwcPOVfeE088YU8/+YQ9sPcBWRY2O6AQwd1dUAF4Z/b/XtJTSG59Xq5pMsaCUFTkwnj/ps7ghKm5dLxFLYnHT1TUh6R+DKO9PZZSWuQImnjq5Ys6T9V2Un8ABsV2CwWIWy8XJOBCsKRQ/HTlnnNPLgzgLApENuSBpbTOIYaaAMI1iwx0WaKuSUWiSno8ihITAJP73SCF7oc3ADAdH5I4MEQ1wF+pk1Wi1o/foqhe3zk7McngPnjvvXfsjdf/ZMdPnHSmbyaZSiqG6STC9VESvFh1oZiua9X9qRTVnr177Jvf/JY9/40XbLkIb47BP92JFsB2wNR5mf/feecde+2Pf7STJ0+IhNbp/POeQqxEN1EGuBkAVBAXv//97ztSaKnnRpmdlYXg3XfftT+//baUykHHNeE+zMW9p7/cf3grvLCswGU4f/6cvf76a/a1576u+/9NPQd7rV08hYXsdmIcnQK5B/bvt9f//Gf74MMPHVcHjg6k3blqPBsAUV64AHl98vFHtmPHTvve975r3/7mN2yJ+D+QRKvRitYALDwpv0wiI8lON1eZheUrgDhWTINIVg+gyNkZl0K/zjemSZ5zVrrViHDX2HtNK2IRC7nAAlxiltQlRJ1VkJ64OD6dQ1Z0gIGhZu+sK//MMZ7bCncD58lvnEPVHtNDA5boE6hqlR+tCgCBfidxk+jd61J+V2b6m67X1kVciu8RhTnqVIqASVuLrAm1c+ibm6mP8/EdCuCmJrQvv/jCKbSPP/7YrXQABt5qZL76xQoMdjerofPnztuhw4fsWwIKj8kM3apV80JrKIezZ8+61SJy/PSzT+3Y0WMO8FSjr55Sxfx/UKv9F772rNWLxDaetXWWi0I+vCKC5HsffWTvvf2OHRAwOCPA0dnZOcuR1f8aZXrx4qBdEwEWcHVevIdnn33WvbAuwE9YSA0S76AsRvslw3fefc8+kUyPyWJwWVwdQM98Nn7HAG5eN252SJ64Ds/aM1/7mu2+f49z41W6f0UDBBb4Q+IKDOqFgqlR3oNaJa6hBkMxLa6D6nLJBzqIqIVerf5YBFejxVVjoLFHEQwpKbuCWrEaV53jc2KByEVdaGBeXtMqe7z8Mx9z77j2c4YVzpHV1qGRIYt1XLbUsvWWrFEK6So0ugc4BFuWZoFSP3UfGwQQIMuOqGYHkytlpatBcK3C0KtySlYXWA0+kUn5v/7rv5wJ/LrC1RZS4z4BFHgd14R77eo1ZzqFq7BSBLfaOfCnziYPJmAIe+ekXP+sVSOvwwIzHR235mQFDl/glEBCr0Bdm0zxGVfa9L3GitGv/p46flRWg/fslT++Zl8IIOITX2gNixIAiDEiXyI9vvGNb9j94ii0tLXKMpo7Mc1P70dlcb6hfu374jN7VbJ86513HVCcn97MfFWsMx9//Ilked5Onjlrf/EXf2FPP/WUiySJZaONZj5Dcd9G/h+13F1Z2ZHqmAmX5DajmnxR4PAEbnSPKT46oYWliGbNUauvUf6DYgGC9iO1cm7DXdElWjuTR6Ub2RNrbl6wulP7XORBUamVK92JapxPN2gmcTmXRc7SHMU/CUDk9MmdB/cE+2dvTUTpmOOqSDmyeqsl66sXXqNb74iKxQLMnG47UDqmgk0DQ3oy1e+Y3BX1AqxEMgAWeF55ojSyuxYXIg9+N5hwD4l8BjD41a9+5RSER5pjn4XY8IMDaM5p9TMmy0eLcio0q5R6VEmD5ouXQDKbTlk5PpOP+af/8R/229/9TryNAw4wzJUFBiW6SJyN5154wXE3ZuIh0KfOztt2SKTT//jZz+znv/yVA17FRqHM13PBKhyQgB8fC0d9TdxaVC23TiF/HtF1PvqG3M6eOW2v/eEP9v/+67/Zu++/5/pZDd1UqfEBEFkcnBLngxDbhJIyLWlvs3rJMhaLV+S3NAm2MakywV4fGFM4mgDCkGI9tVJrEhmxXmTE4ax7AV3CD3myup9+2Cze8xfwKCdhEDfJcd1KNkoORFQ0KaoERqaCROkxkXJYJRfb4Up2poLnYrWfyz8o99QOOORzF2TVwSUTlruhWkRF7ncmZZL/EXi3kgxl/UradV0bbukGjwg48LySm6NFoMFxHe70G19ATGRr69fk8Nabb9pvXnzRPvjgA+efhIC4kCc1hsLExkodUzg+XczjP/77v7ddYmk3i9E/175p3DPwJD784H37mRTtl2L8Y8adD5Myz7X3bBe47W4T/YUE+v7779vLL/3OrSQxgc8Vz2C6fhWznWcTIARIeP311xUiesp+9Ld/az/60d/aKuXPmAtmfm4/6Q+A9auvvrLfCRT+WiCbZFEAhoX+O2IcAEVehw8fdom44Cj88K//2nbvvl+5SvRbKtPtOgkgULr5Wv+YdchSADCAAMYETArkqFb/rNpKbczNDXItUHvBayiIQSmiQVkoKg0OvGtgQaAKY0iKzoX5TVze2+WOe0eWcD80v7olsiMcCg1NchsUGJXjIcjVMCWigX1z5AJ/IT0smQlYRUVUDLcts2RsYfkIpwxP46JgWI8sWwwFfgPPK9yY3oaILWmO2eLa2KTEXFPOcYdtSCUT1nnzhr386u/txd+95HzlTAx3woTmiZq+4p8+o7AxTOrE4//TT35izyhpEKFdc9UAK5i8X1EUwS9/8Qs7rf7A22D7XDfCQJctXWKtDfUzuheuCAz8UaTJX/7yl3b06FFnRboTwEGuPDMWkE47KJCbkIIjsdDf/+hHtmnr1jlNsgWgJtIDWRJ1wUqcvt1pDUDDswux9qoSX/0f/+3vXRKuxQqJLKdNAgjkt7/doxCpwURGCWXPPCpfby49g5VnrdwMuQmPpusEkzbJlPJNybgwKp33wOsDoIMY8ATpj/XHXbOARJhYQjR3OWAFsbBQ43u9xl0HDgRM3pfvYQpOAhfaT+pWBAFVsBxTzghnrih0gfnfFlXeg9pakRVxUWkcgASvec/rmLbF9LC2yxVWKtfBO9dCe09p9XhDFThff+11N6l9KRMzq/A7tbFKJyTuPVlAmkVYxKz+6KOP2lKlna1249q4On7729/ab37zG9svxvp8KgfGvIXQtWlWfoAW+osi+4XADJaOuWTUV/p+ABJR0EePHhM/Ouk4SX/1V39lm7duszrlTKh2g6sBZ+NnP/+ZvfGnN5xsq33Nap4fSwghxiRzCmtSHFNtjee+/nVrFeD2G1Y6CSCQex0i4mzgmUS5NUIH5Uy6ZMEj5K06TRwKCWtM4Y1YQHJc8tW53Dyd1QGAnGs7UCAl78Sa0gdyG6jl7+c2OoAAcpi4B87lwPGSWVJmwFSVAQL3nxV/sTwW1+/sP1HxDmrrRVacgeQ6KovXsJ7nqj1muR2ag89YDm5cvWLvKuzup1rxfPb5F85UPweXrvolCMV7++239cxliKfPa2IjX0KxTP5SO0iGQdwKv//97x3Qgm8w3239+vXKFfGQ1csnnz9ugAtWIoiTrHaJrrjTrAbTyZfV71HlbUj+NuWKWH1f/vNNW7a4pFvTHVPudlxccHd+/etf26uvvKp00wuL1Ot3fDwnEIH/9OZbmtnTssbU2JNPP2OtPsNKJwEEv50q+TjpJNwZvCbUU8lnmfGAqFwLUcIbBXq4xkxWBBQI33vvM554oX7JIKneKFDgAEEWHEzqrhNEZkvGcsCGvKZNSZnoR4RCk0KgoeoEMrh7At+FDw3iCgBVgja9BAi/6pLf+a233rJ/+/f/sC/27XMEpemPuLO+QdnhZmA1H9YPcanIVjv37HX56itNXHTKVpPoh8o78B///u/OTD+f0oJzQT0LIjoee/zxKTUZAE1dIvQBoFBomMTvFnDgyR1rDibyn//q1ypWVGffV1TLxg0byvahe+f33lGaI1o4Ag5+JnLnyy+/7Pgc3vd3w7t7XhTl8M6777tgg5r6Bnvs0UcUWNAiPVfaTFs6QND5S7zGFJmjslHGBdTTlH39bEAELUOd1jh4S2ZyKSGZ5cdb3kX52nVGURasnBmcW0mPH5D9UJpc84+u/t/0b4bSzo5fIAABD6Hg+Cb1UPdHgsEEWM1hcyvybsekXsz0B/0q9zmc6fwL6Tvnr9cq650PPrQXX3rZpc310rsupH6W0xfGiNLj5bkb/pcmtK1aSVY0Vl7XgWNA6uGfi5B25uzZeSEjIisma8ABNS3+5m/+xr6regwrlKY61xyMXAhlPKD+/uu//IsDB5jl77bGOLEkkIXxpz/9qbP6/uQf/9Ea29orChKScmUcl7UCYPDSSy85cDCfbqVq3UdAApYEyMtxRQctbm4S4N5j8drSVnwlAwQXUtZA3Wp/qgMdTLIlH3zH4mWpa0RFUIzJgoD+9xom+LSIl2illJSl0078CYGPP7PvTiuK/BfOSU4V0nhnV6zelaZ/pw+0Spwrc6bsvxoHGRW9pEmOwJi7gxunNqjmArvS6AMpll0WRSwPuUAqs8uC/ZfEW+TV6HUowRvRgu1uWR3Dz0x6X0LvPpRpudjiOmVddB4PhpPwttwoFHta8k//5ApBVaQ7gBDxkj7/+CP713/9V7loPpvXnAEUvFq3bp19Xe6Uv1cUxx5N4PnZJSGdHTt+zH71n/9p++UGwRVztzZAAuCHAlaviIBLEajv//CvtPKtTLi1Z37HCvemon9I3IUivVubG69yeHys/Civbttmja1ttkXvpbSSAQL5LOIiiBWzeiNFAulvc/MjARBGdFPmKrGNUx0uGkOKEXIqSlRvjtmf82x4KsZ7h/aOMh+HQWQg1FjCGr9TpONflCLu6ffVb8MBlpKVtPqIgvfGRMVDOu3GOj6Yiet6AIUtaQCCQBH78u4Bo3EEMXHYgvsE/4X6TBW+DQtunCRvoUDMiyLREdZGeFg1G8WWKEPLypb3XIXFZErcNUqqmqtYzM3nlXHvNYXBbdWERuY9SgyX2xLicBxVoaXX/vQnmevfqXq0gidDqvR5VhCsBnxmPFS+3Ltntz3+1NMqyLPLWRLyx3hBcvjDH/5obyt9MjkvqtW8vsZiURdD7/WZ7TSUjXfvuf+EKlajeZYEQmB/K2vZ6nXrneuFZ7HcRv8/VmZEwAG5A7hWtRq/I2RIZAoWIcCg91viuhAKAfrIkn5Vqy/cN8p5v6pnaPXadUpK1eZybBTraigZIJQiUOlTF+IYQ2nNUSN2P5wU90ClnV3+A0U5wrVL63l2yrHYZwLFq9OM7w4i0v/pGp1fERwhIgg0rmKAUu7QpwUAOt04SJhNXOyr/tG5tMiIjM3raC4AyL1uwc+MkfOo8a7TORAk9qjVKIohrQyU2a/dPsE/cysB3Dy3BQjele8Z5jplmSvdUAAoLKrDMZnBpF+5coUjCLKCq62ZCHNN6ocEUe7y5StK9arCT5rYKCXcLZM9Sr2SDRcKxEFi0+nTI488Mj7B+rkOE+VNpaf9g+pTkCEPZVvpSZlJF0VG+mjyOTRJnitXLHfx/fh/acibFTGWg+1bt9jmDRusXn/nZxKkb8gAvsGrCsEktLHSShmFRX+598TMr1+/zn2m5PQyyby5JRNVQr9RaCRmYtVNBcNO3fcB9Y/7T7GpSnMiSM3Nynfd+kwlUNIy57pe6FMpjf6TPvsVuRb2ib+Dcq5ky/0dtSrxFxUXqWq5TC6jqOokIGcSGNEA2n2SWcetDse7uaKsotzrXj2T/JYADJVsuG74LZF3YoV+288+86zVkcq7COVVVYBQeJDKrYBiK/xleVvRsEoVHO9SwaFrFy3Z2a1CTToljH5aoYvylV7IylPQBffLHpsakUIe0f5yP4TiAgtCQU7O2Uu46/j4B+BAgqdZl8TaxynzUfXD096FxuWjDxzCOUNDY9Z+64L19WywgcZWS0XjlhbzESNDpRsyp4yzn/LPle7LQjvfUH+fSjQftP/87YtOIVdSoTHZZlaybbZZBYK233efbd26zTbq8xpNbEsWtWfJcpNvOooW5YDCIhPiPvnGv9AL8MIkx2RUKbMtqyuA0Y4dO2y1Vttr5HIoZlLLv4/IjQn5o48+dJMkWfwqKUtCM1EArBjvUzleylxTmte5SKQsCFuMZoEW/UeZoJxZZca1Yg+Fp8ZZjQlwHTx4wBVeojIjCq4Sjetz7cbGBlulFNfblHdg+3073Pv9O7Zbu1I8k6o3IlMx/fTkjby492Oq+0DqaRIzndYq/HMBGFwfWLa4/5W0LHFOokweVBXQdoXqLRFg9dN4HkntTO4IXHQkwapU835HkEw3b9roZPnIgw/YTv2elgsk1OmZ4P4iS140ZMkLUAUYwKVGeOIhyRG314njJ5RqYNB9h8wr0bgWkS+rVq8SOF1vmzZuLCpKZM4BAjptSESRMd20SjYsBzasKluXT1nDobctevGspXqFEnPRCJrcaXNd2WlkKXeR9uAahGUNICQypd9hxjyPJs5qXt7dS8fxkTf58kNYJ/TbDgMUnFWhzBFNnounnAzlTVmJFDwCxJft3qQdvTG6c/FPoZN643EjmXweNonla6dOWlO0xqKyJPQv32RjDe1ySehxKXS6SR0o7Y+EBiI8YvUKWyw9bFadqXB/Sut99fZmAjlz/oK98/4H8kGrvKwmjEo0JnwmtSVLFtv9Kr/7Na0mnn78MVsuBcwqt76+TsCg1k0ennLIvy6WhXUCEXulBJ977jk7r9j8L5SiGJY9K14mPSZlxlBOY3IkbfSbCu1jQlslIp+fVWQqocx9Vy/bH37/B/m3j1VM2XqTPhaO559/3slip2oLrFixwoEFAFhc4CEcpbR1RjkUIw/Ciwd6xEKXr/wjmcRRuuXKkutyP1k5btiw3p54/AlXFIr+tixabFgNmgRyYgIt+SGWHOs1qTZXsnmj7sdDUtwvvPCCI3piuuf+s1JFGVUCJHIeF4r66qvO4rJYtQameya9/hV67xNwgZj4zjtvu3BGzluJBjDkt7B79y73O3rmicdthX4XbSJWNkqWcaWRBhzM1GfkxPOyUyD4qSeftG+f/Us7sO9L+0i/o/fee9+BmUr8ljgHIOkT1W/Yvm27qqkutXgRbrs5BwgoWqLb0NuVbHU9N6zu3CFLHT1s8UsnlKpRZpo88BUSag63Kf1kc5tFWpco1EGIVHGi+O35/aJ0HYlxSJNx9y1L9nRYqkdWiC6ZIweHJneXfdnixsLxkPyqp60cOBgVgMFywLgKyU8TQKipcWKMzcpIB2kkt+lBSfV3amxdSkPdIzn1WlJVESf5EpjcBa7CJ45aneQQXidrwq5nbLRlmQBR3vlyz+3jM88BfJRCw5ntdICy+vqoVi4JrW78nGG2K8zP9/yYMYHuP7Df3vvwA+enrISCYDQoCMhwf/GNF1w1xc1bttrqVSuthpwDRSoxJkZv1cwEyUoZBb5z5w776P09zjR8RIq4EtUEAQkoHUrcPqHqj8uUjpdrl9K69Pv97PMvbZ8qJVaiT1wboLJGoOpBlbB+8okn7dEnnpAFZqu1adKFNV5OG9Jcs//gIVcim8x+lbr3rMAfkFL/9re/bY/IyrFVZvt2WYrCJZQK1gyTsXwISOCaABxhSscKtXvXToGat+1NAQUsDJVwibCSBiQ9KeV7n+TbrloVMyncQnI/fy5Tsvvo0WMVA9rk6Ni9e7fL/PmE+rZbHJI1Wp2X8juir4BMfpO84KUs0/gAX/crH8YD9+9xfBn4GJUgJnM/AEqvyyr3oOaAXVog1AjEztRK+6XpTJiCKbpUPB6e6fLlf0cYY62qDzae2W+1xy3AvRkAAEAASURBVL+w5KXLqjaV4w/VDzmM0myX6WzNeguvXGWhlgxASLcssXSsZkonQiODFurusKReaQGEpOLPEzevWeqWXipZKog8cYz0EoRHFDda2wMbEzuU/wlAkFLkhwMHOZd2Z9aNCNXG3fjCizV5Ll1u4cWLMmMUQAhhHslpaZ0s1d8l4NOpsekFEOoUSLh9U+MVaCCECl0rIJfS6i2kfWt6tI9cDGObH7J0+0oL5filc0495x+x+tSoRgjYrUKWuDkfQ6ELssLBDE61Nia1Svj3IUkxme/du1cK4i/tW1rxrt+wwSLxqc9/oT5Nt43JmslykxQEufS3bdps27ZsVjW8P9rHn37mfNblKDjAEuFaBw4cdKWsn//mN61RiqnYRnKpq1cuyxLzvtwiVyuitJAlk/hfqoLet1SREJkukTk5UiJwKTQGt2qWn/9trR6PnzjpXDaF9itlG2Bm/fr1TpnR5yefftqZvz3SXCnnyt8XBYdrBUvEWgFFOBVYp/70xp/t5OnTZfv6kQf5MXBl7JHCfEJ9LxYg8twNaT47qJwHb7zxRsVCGhkvbqQf/vCHjkDLsw9YqkSjaNVavahwulXPGHygV+Vm8X5L5Vo/AMgZwP2xc9stk/ViplYyQIBwWCtzcKkobqZO+P0uLFNcXKvhpiMfWvzwp1JyUt6aUFxzirNeynKpxdatt9jmnRbdsF2KVClcNallXtPAnIZGU71VpRXY7tB7QhaFyLXzljz2pY0d+crSnbfEbZAi9YCCFGrKuSZkvhWJMaQy2JUyfTvLgQcOci0iGkNIqDPcIpYsk9OWnXo9YNHFKzKTvjfGKR0B0WRemF4TsiJEb1+35Lljljh7yhIyxaZ7ZTGRGwigAPgJdXRa7edv2fCQxrzzSUsvX2epKrgb/D4Hd9NxTGojw0MKa/ykIpUZ+Z2iCDZt2mjPPfd1+/73v+8If22U2JX5s5INk/rm7dtE0FoqX/Zit5r6sxQFboJyfakomzdkct+jFTCApNgiNH0ifp2UNeNzuUDgNJTbWOltUW4G5PjjH//YtinKAgWMoqxEw5V08uRJgcOPKpLdD54DhMi/VgEfci088IDmCAGZSvU3d8yNUpwPikwKMXOxVsIv/dcr4lGUv/pNak7//Mt9tmPXJ3a/wBgKeiY3iNcnnrlL8u3j/qIf5T6DnNdLaPWPytFAiWUsaNWQJZVNV8oy83cqZLVWlgkAyDsq6Q1fodwFAwTQNxVG/ITqnizWomEmt92kcs9DSk5ws2+M5IPTtlqt2Jpk1i0GIBDFUBsJTyKgjWkC7B1RnmiUVBkNy0GNwEHriU8tdnSfpVW8xi0jUYzy+YWb6i2+ZZvVPvUtq3noGYus3qxtYhJjTuPHnOUgTIAFDzR479pH+zmCiX5kUdwSS1daRMxesnikiZKAOJQ7DhSqFLLTnRWYL6Z1K9AvgZioJqrYo8/o9Q2r2bTLorKShOK1ikSAGDHdGDPj0gzr3A8RJc6ItCyy6KoNFl251sL1tc4FkVYWxQx/ww3KQvq7tue6RTVBJtuWWlrXSTsZlnETs4fCPahRLGypHATcEyNjmXTKRKoUag01mYJNftI5FzpftbdRa6Hj2lV76eWXnIkZ4pffxm8UBbF+/Xr7W000//R//cSZRUnMU2lw4Pqo63HeuIDCqjVrrV2+WPpPGtty/eiQH/EB7t6x05Znq/4VI5dDhw85RfWhFG65PA4AEG4UlMPf/d3fOSsC8i1mLiymr4DD69evOSLlm2++5fzP5VhfAALc+5/85Ceuv/eJOMcYKtXf/DFxXu5/g5TZFhFeG2W5JSkVvu9yVr7IABN7s1zEkP8An8VYEUa0iHtD/BXY+xTkKqcxNqJ8vikL1j//8z+73BWAA5RrNeUZ1fO1WATNtbIoJKTzsKbwm8Ky5rdxL4aluzwibb3m9OlayRaE6U5UzHZ8zX2a0HPq6hRzWMF9aga7HDiIHvjYxGTRaj6rIXTDIjKxR/c+ZvHdj1psmZjPSjXpFGLBM82+0flmpRDD7csstlNFRDjnif2W+GqfJS5cnGRJYMWd1EI7UqsVfqF0x7Nfzu0xLTjQt4yn5uEnLb73EblM1gssNOlaAm1TrAUzX8w92HAKeMltEBZYiDW1WVquirHP37XE+TOW7hOXQ4oY1Bju6bO6U4e0X731bX9ExMVF4iQIaAStYhLoE8HvM62WDh7+SiGFsoiV0ZhE8ZOj0H7wwx84pnolFdp0XWN1zyrvSZGuuB7tT8o9QIik34b/lDK8ZEDcId9psW6G43LVAA4GBgadNdDv9TkOUidWAwoKwbuohIk+tz8pRQhc14qXstPIqhwlwHlXCkhhOfjBD37grB64RqrdmFOiqqWwRCvT73znu25OIhTykMoRO5DnswMuTPH8eaUY328bNs+eXTOtFcNQX68dl8X33LmzPq86cRjAikyX//AP/+BcNTzf1bAcTFwx8wnd06hF6W5ZTpBtj1zeuG+wJPhtWFJwNXz4wQeaE7bYohnIinMKEDLJbVgpTrPcK3LEEa3eY+IDRI7ut7TQqWjJmSNllonIvJkBB49ZZOU6mfszE1SRp55xN5SwNSk2WAoyLDNnBOAR+sASly5P9EHAznESUKhyx+ie+mopoah8QiI1FsIyDcd3PGzxh56yyJoN4h+Un0DE62BIfIzwIoEggSEHqCS7xOnjWZBAxkUNV2CsJvqlaj7ErPe+xy1VX5ksZ14f7vV3zODvKxzvvCIYyiV58cP/4fe+p4n621IQKqM7Bwoi9/5hqXhIJu1ugZOLF86LJHigLCXRK+IsFoGujpu2cvmyGcl1KSZBcRdOCiCcPXuuLFkCtAgJxKSMawHQVcwKNlcWxXxmlXxeciLdcLnWDvr4rW99ywEE+BJzfe9RZnBevqYkV123Opx7h1oL5TzT/Cbee+9d+9YLzytvQyZ8cDq5Do+M2hlZDY7p/neIQ1ZOw6WFawag9bhqZZDnYi4b7pT6xibboWiJ/1MAlWfjj8rnUQ5xEcBF9dKL556zvSJbRhyQn6qs5hQgIFTpzBLXuVNvRVzRBTXnjlr68iULeeAAi3lrk0V3PmDxPVKey1dZpILgwOsFDz7ErsjydTp/jaye0pqpjywp1q5zOWhHWcQyiZlIbED441S5e6cr+M7xrvBSHiExLJNtzY5dcik8K3CwuSpkQR7GiMLd0vc9kOFzyJSROH3S0lqBwe9w0RyXL2RAhMIfLS6LiibQoJUvAWLfb8i9sF+KtJzVNj1xylnFf5jUtsvcW6cV0Hy0ZuUBeOrJJ+yrI0ecRYQVvd9G+OSpU6cFns4pgc4Ga1bs+XRtTGZUwAGx+kykfhurRPzOX/va1xTS97yRsKda7brIiUePn3CrO7/+cuYnVruPPvKw/eiv/8pFrMCbmK+2du0a+65IsafPnnVlycupmshv4shXRxyvYLnI5rVS3NM1lOj+Q4ft7LnzUqh5EWjTHVRgewYcrrTvCWQ/KXCwRNyK+WjMy1gSnhbgOq/IlnOyXKPg/QIueAwkjrooq0y/FiXN7RDapyqqCnjKixcXCXGGtbL2HZGG4pQZLnbltNUd/1J+8azlQJsjDXUW37jB4g8+Y9Fl4grImlDtFpYvHjASe0Cm/qV6cDxFqX6SqyBFJsYSB4trIQ0pMdfIoh89hMToFoGDx74pcLBJXIPqmQsxa0VlHYkKJMQe/prInbqeIiXGkd2Q+Bey3IQvnbSQwiSDVhkJYD04JYLaNZkPy0mMw6QGeQ4/+Y5duwxm9Hw1fNJtS5bZj/7mR4q9f9z5cVFifhqT2lU9dwcOH7Ebsg7M1Nh3n9jrp8+em2m3Wb9DuW5X8iMsBzt37Z51f787sNCgcNSXCukchf/js3HvsRi88Nxz9rRCL2vn2GqU3+2w+rNyrTgwuv87xB8oF6zggjui30jPDKAPzgIFrg4p0VS51oM2WQsee+RR+46sMasUDjyfjXmZSpePKqyW/BNYMvy6OTw3A1YW3BXTubOqBhCYA/KnAUIk6x1p0aeY9SNK37pqaZIgTSIlRh0JMbb3WYsuWZF1K+RfvfA1eZgQFsQN3vm76CZUF5bPPrLtQYtu2qaIgqy5nVPo5RIaCSg4H34RJ+XSabkWkmRr9KwHCFLmn+jmTRbbtdeiDhxoNVjkJDs+PvlwSxmjAwniNsQ2C5QIJEQWt1vIK6qhjkYG+6z1whGr6cuJHClijMEu00uAlLUoNGK/S3oO8065SKQm4vOfVXw2KXT9KuS80/r+My4ltUkx7M89/3WXFa8c8zxkR0zws038AARCRcn46LchN6wHzyi0jph3lEU1Gvd6VCTMS1rNnVBoI3332zCHozxQIg3ce81R89uUnEkA9T6Zx7/1F99yXIhy+oMV6eTJUw4AOFNtgZMRndXfddvIIVEOyRcCIpkm/5uA9rpNmy1axUVZgWEU3MS8jBWL+iQPipfA/fbb0HfHBLYOK5Q6oc+FWtWenqh+XI2xiCzsE4o6qR/CkFbU4ir6auFUwlqvnLT6ayKdgLJ1PhRlZNUKi+7aIyW9yxHtSpkQ+/XAwQy9KLOlx7YuqXOKiiC0ML71fosuXz1xKGOUNQCyqSOcFjNm9skeNw4qFJERkS+v5sGndY09AgulgAO5BxQyd1urrvMKE7ugFQq51ItdnTp3gyI/4hu2Wc2eJ5RbYaJgDtab8JVLlrp6TlEPSrgUtLIlAOP7lO5TuelqSYT0vOLzl8lvPheWtNkGzu+xlpXPo4+55EzlAASe3eOqbjhT0SrMrqTTPS+FW05iJEz1G2WVfOHZZ2y14sVnCgebTQYzfQ9A6JML7/K16w7QMHH7aZAmVyjE8BmFr1HkigishdBY5baqkuALL3zDWWPK6RMA4fixo9alBWJSQKBQG1I4NvUNLl+6XBaXY6Xu+cOPPmIPKOcBIZyl6JVC/arUNp7L+3R/v6FcJi3ql9/Gc0d0B3POdM9cyc7jhE46olVujSz4MnxP2zd5qxWtkDYFAY3vhYDlkh//e9qDC3xBWGN0qN9qrp0XQfFGRn9yLoWxRTZtt4hWuiHCGIWwZmsJTSAdUpTkOD8odi0TSULExxqRD0Fne7RaADm2LV6kSWFmETEmQgVD67dZ8vJ5G7t0ztL9Yv47VKCeCCA4n0oB/05uPyUq544QBpoEjEM6d2zjVouu26LxTe9zzT0Xn/khHTt61I4ol/9pPQC3xIgnjepSkbuI494rRjbZz8Liacz04AMSQs2tFtqkPAvnTllqQGF35EOQqygkM17DhWPKNbHChhUGGjT/EmCy61ExHFY9fgECEzGhWBQ2euyxx62mjuyI0/9G/fe29CPpB8Q5QquIy8f/6WelzERGoaXbkhXPOCuo/DFyXjL53RZT2881vNFBsnv04Udss+aCOoXYVauRWvmm/Os3RKbze+/pG/d+794HNIdVLnFPpcYMeNkiOe7S3PqB2PMsVKZTSjNdk0gIyIo3b912C536AjwzFn1ntU+nnpNywivRBQ/r/pMds1rgcKaxzvSdezaVWXSbooPKKfCEheXW7VuORAqRNX+cM2u/Aj1EkRGuGFflnpnmHukP1VxQrgIpRi++HdUd1d8zHVfgkm5TODFqtV1XLdwhcABhjqbVdbhdhVDWbxUHYE3R4OC6iGDvq6LbK3/4gyveQaEMGsLZuGGDPSdC0ve/+x17UnnqeThm9fMIqZOAKbJuk0XPHbcxKeRxgIDixyowW5NMXfQDLglABY3xtbY7M3+YtMlFNibOr776yn71q18pP/pbdubMWUfU4ke6VFEem2Uu+67MfT8Qw33jtu0OOMx46qhAhKIbwgqbCt+UvwqAoBZKjlnT1dMWEngZXbPNRTZUo6DTjH27S74c1j3rUIQIuef9Eo/cJLxls8Lxdrv0twtNNBQ02qJJlxz+WOv8KG9WPawQO6VQsbjg084HCCjZi6oPgR+6nEaY4GPy41OrAC5FtVpCIdqXBQw7VJyonNbU3OQsNEuWKBncAmvMoax2d+/cqZTMuxwJ1w9AQOHfVtjkFcmqT+RD2P35rV+LmAuXLxdtKc0/3vvbpTyWa4Tf1UJruG3WiWuyV9EVJ06ddGC51D7yWxpRtEePgBSVOkn1nA8QZl9u513VpVqWGcBT+nlfz/hnxsXgj6QYUdGghmunLKbUv16DqBcROIiSwKjI9L9dxH++/4H975/+1N54803nXvDOxwNL4ZlXBRz+/Wc/d9aFUsKNIktXZbI1xp15xZ02kyY5p/Kid7Ei3h0xUcSY6NqNLjFSEYc4VI7v9Re/+IW9+OKLLlUvgIHGj+u6zJiffvqp/VTf//w/f+PS2LKCmakR1x7VDzGyQvkfZE1webZZmAJqepWOWSmpw0NyM8CwnMumBzxJH4oBYHPZLx/X6uru0aR2xW5qFel31YPp8fHHn3AVGX10YU4OWSYLFpOaX9+pUxACB7clpyGsWQUaq0xMp+VELzBRLlOG0vtURKdcYl2BLk7axLxzQfPOTG6TSQcU+COjgFtc5cu5DsMr0J1pN1EtdKcAQjlupqTmMdzCKLZCbXh4xAEQv0AbwMk9X79GNUZk7YrqWViIjd8Q9T+am/y7GSBG35BO6NZvCrnmt5IBgudiICKh1Aa4aBDRjQyLpbaQTLCh2zctTcVGms5BjoPokjUWbiyOiAViunT5kmrCv+7yc+OfzJ+Meaj4oX7+xReuDjumMI4rpqWbZW1YJl9lowCCJ1kOlf5NiXtR5GnGL4V7IcRqoEZhSkW4Tuhnl340nwgAvPTSS+5HxCrNY6jyPZMRK6yTChd759137UslnunHJTJLI0NjeONuZVsUSCCVtGvikygrZqKv38b6ezW+uQUICcl0gEJNVP+6w1sPpr7OLvc8Fvu85Q8ZgOCyo63K4cLk7zTPf7cqVGvd+vWzFomZqZv8ZruVE6FHr0Ky4nssDMVybQpdq1X5RgjRW7F8edVXkPw+SSZUDqBBWaxevcolcKo2oCkkr2K3LRXoonQ3qYT9NuYw7m9hAiKr4hFjIZg/txd7PSwG2+Xj3yBrV52yQs4/0bNwz7HI7ZBFhnwn+Va0wkdM3cqzh0WGsMmRAuRYT41NPXKaLSj3uP7x0yFcC46D4OmXaa5RcDPopkuhTSLduaaeRxpiUqArVKJuqpmp0DnwTZ2QYkSBAg48xZm/Lw8gMbdH5cOnzj0FP4ppZCIMt6pCpPzxIYX3TGrosBkQAro1lZBgcrBIiPTOG3ZqfMX5P5ksMa0ekXsBYDPTDwSQcEHcC4qgFJWjXibWqDJJRharGBSIFcBCX9XvuoFua+m9YdTGmNMm60FSfJj0XeDXAJRe0rPGs+enMalRrW+tSGot8kUv1MaktkZZCJcpLNjLsuinrzyzvXIhFAIIbOPZ9wtYmdtWr1otguKmgi4MP/2d7Rj66/fec26sBlu3bnM5+2d1ic7WmSp+TyTIWgEE0gf7tSJ487NnGc3tblJKrl8K74ZIjH5cWJyL3xIkz5V6BhYK0TN3jN5nqoauVGEsiKn8rvw2aqWQxKoQ/6VkgIBOyNFhfvtU0nGhZMLCwwMi//XLT58xg6CAw+SUb1P9AVbYRTSQJcAA5Tmb+Yl9MWOxIieBTTEtLEJjpKHRQoAE+e1LalJyLrQxK9yQ8EUEYlTbcn0oHm1zs3lNB35y+wTwuSafdzErLSZNGPFwIkzVMF3Gq+zJ4gII9T03DSJp0PxJgHA8yKQzgbqZzgzBiLryrCYIK1yojcm3VcmTVqxY6dt0DwAAIEBWzAcIuMtGVVyN78vJJ0BCHOQ5F8oWIIPfvJxUxBTzgQQ61xkTS33O6N8ilZhGqfkFiNxzZFVoDk+JzzEqK/OA5OkXcAFcuPcL2VWD3HGDkfKZKqrl9BUuz8WLZG6dqudKBgj4fIdUT8GPi8E9TFI0EBVnIfVPeu5CIiiGpIRSI1pdeQssZTE0lWuONiondv5qfdLRk/9AqDyks1lAeLiG9RAioJImCUzx7QItCn/MbaWCqnAtYENlnGOqsVCCsJiAecBnGx99Y1zsX/z4ZDlSpEikVYTJHJdHWnJK4w/24WJgaI64miuse/AzYXlXr17xPakx2cJsrpcJfyGENs50C+PiDtFXXCJ+G6tHXvkAgQXESH+fTMy3fa8g6RMTL5NuMb8jv2PgOPpPVBVgB6Xmt+FWaJfi9bsq93tdP8fVKboGIiVzj5/mZDaDxSUphvzI8IRrtdRrcM+JCCnn+Sz1mn72x/URkyzblAWxHAvCyMiwe/4gy+a3kgECi0RAgl8zAhesEw8hpsEV25Jj/Og1GeSYX12NBU2G6VLAQZZJS0as2dArDwc+vWXtbVYL6bDIFhJZMtK6THaqCQsCejOt6IQZTeF5CCJdIzOxIhfIaFiKmYuJDTZqMSChtrbGEbFK+aFGGqWABMym+OXy+l+kuMRHCVutj0qOxZ7/TtkPQJoxi/sTJPe7WRa1Uu7lfMmGvpKAaLbf4Ez9w0JWcIWYnZrkeJrp8Bm/Q0Ew4VKNsOoAQeOgnHxKIKGchixblCKdBdBCb66velb99pV736tVLwu4/AZ4GNR2XMR+rXGck74Vv3DK78Xc/s0z6sdr7/USQDUmHZsPtvm+eC2dPduYSkIPDCRkwp79B8geU/fKWA9KGpBuOqZDvU00hMKPQe/FNsxwG9avV7KO+2ZFXM0KGdp+n0qLilRDyc1iG5muXFGnHNGy2A5FVQia2gwFGq77KfIUmAmFsQQUf4t4UKjDvl5jhIE902rC7UvGvT33iwVbHIfDdV19ylTGLF7uBYY8vikp9DQskqEfi1RhaY6f+o76AEGtUyTFQj/SYgbC/WRS432hN0AMINYvQEBGWA8GC1gQKjV2lEOkiqGN4/3UWNKsuiZNbuPfFv2B+06f74T7X4m+Ag4LzRmDAlq9cp1Si8Pvbwk5tsi9W1+GhavoG7cAdsRdA6AqBLiL1z7ZgUREUIzHNREVcSQYYlCT/1gRYGIu5ITC3KTYUXIArF+/blp/nQsfUTKhb3/zmzKFLitJSRcaB7/9dEoT9zRkOgcgKjCx88PDB/2QivQ899xzzkxWqD9sW7t2rcrxPmU7d9/vO+RsunOXsp1w2ZgP0iu5OIYhKBaAoKVcf6Hsiz8VUpXfSW2hjKOYfrAChBBVaEIq5nj2YXVYzgqx2OvcKfvx/MDqL0emd8pYZ+pnXKn8mxXR0S4L1UwLpJnOwW+QapCFOA4zHXenfgdgx2JG9eH8lke1z/+6wN86R0aXTT1Z/t7ggmGFotUITMSygII+1OomRsP4KvKPKPx3SAmDovAGcgcgBInvO5Tjdih89OStixYvsmeVipSMdZjjT58+Mx5ehIKlCt6O+7bbd1Ta9XFlqsKSUJE2R8tdfJH3yfJBzXpMcAdU/OWW0CFERJBxk3xryxW69eRTT9n3lChpxSrlbvDpC6yEXAh95Uc9+9M0+WqAzhEfoaOTz7Jw/sKlBTAFzd/tIAElRn6RQMFD5ZGlQu5IZw0t43FEmSHTYsjJZVymIody3wGI1ehrTETxpvo6a2pudBY1P88Y/SILY7/kudAbc8XAYL8AzUThwlL7XFMT12ISgDDVPVUyQBhTpcFBuRja6jE1lzqtZw5pUKxjTxEWCG+gmE5JGxuWIvFaWsRF61PsfYkAgUiDlVo9/9//43/Yug0b7KOPP7YrCi+j4UpYu3adPffM0/asCrQ0QlIqIDSvD4XeqcqWVtrmXMIegCosF0NGC06VmeMoOBNjzneMS5kK/TSK9ZANcrncDW+/845SSh9zSUVItUxd+/v37FVe/EddyuVSUbaTO7J3/fXTu+CYQhKA2Q9xD+DqZxXIpIaSqMakW6i/5WxjUqOvdzsQKkZGAISoQH2NXqX+FnPP793/O0GmkOIwaVdjhR6SjiCxWzleeWRJJFjhPAu5Up/fz9xrUrTjmiyH4DphQZjQr97ISgYIWHTRDeUsiLl5mJb5rygTMRrW4xugQ7m4OpFW+CN1kRFUKb63iCIM2pctt+9893uqVf+kDcv/636oWsHVKJcBq2wQVangAKGmR2U67b4hG+jUkBG+L9Q0RzjkJJvKRBsWo3lA2QkhKJTYkAUs3N3Ke79+40brF6FnTESosCwxdYpCqNd3mJT8ENpSqt6Y6FbCqtyIBYCiG0QOwCmxzyXvzjMoK0I5z2HJ16ziATDmFyuPAaG1fgACKyWS7YxqJVHq76GKw5pyavpG2LDra5Hhw1NOog1Yw3jdDY2VW3tbu3IYNCvs+LqvIWF5IhKmGkrXV4emOQjl2ydXSDGh5tOcYsbNES2ColpMRuROLkUn5J6U3x8AZsEDBPUT3UUlUD9zhjfmdkVBbNmytWDURukAQWeFHDKoUMeofMcRH1YE4QKrkRWhVq+MH9nrauH3VCRuyXql+m3QTVeP0yyspYBD/Z2WVAY/xQk5M13howtv5QFq0aSMCyElFicYBHKh34fKuwqEo7T6w0RYdEOv5ulWQjoTfSLbDA4olKV0sALgoYIeL9wq6YqMUQpZVptU1+QSzyH6J3eNH4tS0TLK23FkNKksiiIq4cfKF17evnfCn41KZQ2z3+/zhwvp+o3rNtCtBGCKZ44olHAhNkrxDvZ0+6ucmh0QMgLg1uvlV14LSTaMAeuBX1Y/Y2HFe0plsAslu1lIYwUcXL1y1eVf8ZvIaKbxQOqu00Jv0aLFbgHkRx6eBaFQIqaZrj3X343KCnddOX2oXNmnbLZ+G4RhUjYXCuv0BcHRfZDE3Nzss1eUgcb/XExLS9mlYnWWJqVyNnwwLfJjsnfAUp0qcOJlVyzmZHn7YCVwCYBkVSh3skli4lVtgnTHVTPVjiiphWUFIZrSE4kMB2kVI7FuZY/U6rCcxgql3DECeBIQy5TNMt0jgJBjQRhqaLPe5mXiYE71YU3Xb4YJ96AWguJ0O82wPS2CYoIUy9MQP2c4dEF+RWKe1cow6FdJuMRemniv6LWQVz5Mare6up2lhFWvn+asEDoP+QPuhoYlhBTEAES/jSiYs8qGd0WF5wqF//k9b6WPw517UkCmUA6LSl2rRqHmuFn9WEjpA9Y4kpadPXt22mydleprOech0d1ZZc69peR/5ViOGhrqbYXcmzGB1PzmCyBokSwzYXGhaazvxlAueWgiJstDvATrQ0qJkYYXr7NEnUo609SH1KBW6ijjQVkRFkBLDw1Y8uY1S12/KldDjosBDYjunAEQ8VU4ImnlaMvUgFLJXj1nyvox/6PTTQf8pLpuC7iodgMoUX0FE4w2tNhA01JLlcjX4BmI5fBKih0keThEhblr3AuMG+LoWhWGwbLlpzmzqJIDHVEJ8xs3O/ycYk6O6dVK57yUBKWY/RDIvE6yMuRVkqXOO3iBvQMK4QbhYvLbWI2Trvu0lG85NR38Xr/Y4+DYnDp5sqx7P9u1SITn5YKZbd9C3/Ncktn0uIreUWWznOe00PkrtQ2Qdeirr5z1yO85kdViubeWyspciAMzCSAQwlgfI0FE4csx//NKSlmQC6GYIjnokQGt9IbEOPcaOpBkSXVyMeToQ+/rgu9jylDYvXqbjTZNoOy0TKmJaxct1aeUq6CW+W49Wl1fVz79QbgR2c4wQMkz7EL5ZuigQwiTv0chj50+JsWsFTt8i/lsECZvXrK0TJnOxcPtVJ9DyvgYFWM4JhN5uRaYYobHZSkjPiqXyWwNF1i8hGdstvNV83tWjyuVfra2iCyf0/WD0q1f7Ntv586f0++hdO7KdOet5PYbcoMc2L/PMe4red47+VxYEFBoTbjpymgDYt0flVIjnfwkjlAZ56zUoQC5EQG68+fOqfz8mbJ85rP1iUgu8sD4zbPhnf+cLAiHDh4Ur2fhAVEsBqTJ/0y1dOCe+GnM1zx3FCVbJgvCrAChsSZiG5bWWFOtwgo1ucIL9F4xTbSN4gDUK3rBkQuZqSd0/oz9AyTwym1Ob+ofOlkMSIAfEFUNgLAIKB6CScvvOqaHbezyRWUjwweTd5HcC1b7swgjqesXbezsCSlQKdNsV1hhR+KQKGfugMuFAIgAnGX3xcWQuCwEe07nhGsxX42bJzdO4sxRZyHxxsZ9SLfJctC+3FJ1zbL2T4MsK9xvRDv+PElWAFrvOfXeeX7bm2O2qFXpqkuwVFW4q0WfrlFhjsu1gmRi82saZRV5/MRxO3daJlwRUxcEaM6RACsxyhp/8sknZbtBHMl5th9VzrUX8kcsCMuV+x8LQjnES+pPfPLpJ3bx7BkbWWAheriDzmuu3vflF+JKVNeCAMl807q11iAuQjmLlhMCW59Jnr0ArgUGuLEWfaGKw2fOnC2rhgeuGELda5Usj+iP/DZpRodw2CoAsGlZra3Xa+XiGvdavaTWtq6os5VtcasXiPAUWP7JSv2bHPx1SpBQ1E0UQEg3isS1WGl+lQLVNVkNKOCUuCAFeu1cjtYotSdl7q/VfbLjihT5GVk05PJI5KzeZgEGuVd2ICEmMOHdFWfWVwTCqcOW7Lmdu+ucfnaRGVfOW0ITT7K7a/zaKRWR6lm1zfoWr824F0oY6/hJyvzAM7RYIMB7Vnn3ntf1i2qsVWD3DsAHFhNAaBexivLCflc+KODLl6/YO+9/YB+pYin+/oXSWEFelH98//4DblIrl6AGQfFuISk6DgIcFE3UrOj8ggRcLqdOnrIPBcDOn7+wUG696wf+8vfef98OHTos61F1c300Chisz5bqLkS8K1YwKOGvjhy1E+IjDA0tADdvTsevX78u8PKpiwaCVOmnoXcpSrV6zVrlwokXPIWnisa/BCS0qYzy8haVkmwRQNBrRYsKwTTFbXF9zBqzJlsCzIblC87nFoyfKO/DqCYITMPjKz99T8KkZrk0puKWvIP1Z1qDSdbU28iGHZZYuX5iBwkneVaI9NghS91WeOEcm+Ix5SXkk0+cPWqJS2dl/9aDxCClLIm4CKPwJbNiQVW+eyct81bi4jlLXT6vCILuiXHP0acU4KdTpaOPfGLJG1dEOMgqHYVMhlSnYnTdNhuTBaGUBo6AoAgHoeQm2Y6OqBiLXlgyoDAsblRui+yz6j2vy5rj1ixw4OsaJXeq/ANA74tk5tuxY4fvzJYoYYh/H3/yqb3x5lvTpk8tv7elnYF+jckC9cVnn9r7UhL4yP1Oat6V4VyUE9rlnWchvDNRo8g2b95ku3bt8g0QkWmnXIC//+NrDiQQMYDs57sBXE6Kd/Dnt992ZYWr3R/y2SxRGPuWrVtc4ju/1wPEUgb5rbffsc6Om4p2y1n4+T1pBY4DaH/00Uf2+eefK0mS/2ROPHeA0nWqAjodKJ0CEOg/0zbKuymeeTVqlc9EDOOc7XwPaOkfVBymwh2LaaPiIJB2OXdvJu96Kc9i9URaVoSBtdttdMN92bA6dUodSd246QBC8uRBS8rVMJc/ChT42KXTNnLsoCVEUMxtIZEOKV0wbhHI/bLQZwSrIblgAO/OyBqRvC2W6vEDcjec0UM6t1yE9KDibC+cstFj+yzVr7wM2ZYWU3hs1XoLLV9rIYWgltJ4gijQxOq/1AYgHRxSSVcBBD3fFtez2SCQ6T2rvHvPa6nnnu/9KYO7636lvtbquJzGBIIZ/9Chg9ZPMrF5VhJE91wTMfHDDz6wffv2VYT0BRCCrT/fYyvnPuUfu2H9BnvwgQemTQGfv3+hv1FqmJ7fljI+LsJqOez2QucvdRsgjtXuW2+/5fpFVtdqN8B2k4h3e+7fo6qR/omf9JO+//nPb9iXX3yuZHMT1tNqj6HQ+XEZ9gtcfyCQ/fLLL9spWTaIXvLTPFC6TpaWNYqeKgkgzHRBgEJMkzurN4iKo8PloSqnEzXTF6MqtBaXFaHRkms2WnjbdhHkZBbJHpiU/3/0wPuWuHLeUqoHPicTR4IoCpXo/ewdS5w6rhV+NhaVPunlgAFarMjGrlgbwjVYHXIO0nVQ0KOHP7WEVvEpZWqcixRB6RGlbhUoSeraiW6FpHm3WmaORFOrda3fZcMKcZyrlpSiI/9GAnSqFpWsGmQ94P1uaA0NjbZGWT5ble67EGGolDFCsPrdiy/aCbGch8ooI1zKNQvti4LokFL4k1Zhn4tASVnjOfltFurMAt+2TG6GLRs3Wp2sCUzg5bR9X35pr0qJkHhrvlj4WFdvdXQ4sPrHP/zBRVmUM6ZSjm0UyH5w7x5btXyF79Bhrof148SJk/bvP/uF7T9wsCx/fyn9z9+X3wyA+CuRJl995RVnQSgH/MFzWqeoqS3bttlSuTUrBhDqxVrH5wsJTPe/pFwIKPj8yQGXRr1WfUUlXNJvhpwIw+0rbEBWBGsRYVH9oKWGpUQvXbHRz98VaVEgYYQY6yqa10RaSd68bMP7PhBRUhwIITtnVqEz6pJT8rEs6ZBtRbZxkIDfxZsj9HCkBkYscfhzS7z/kiU6rmXCKKu1MtR5XYTI6cM2IvAzduyY6l7gOsn0KaS42fCq1RZatcm03C1yZJnd3JC8cZV0ZGZnghe8YSMrIm/KnEt99KI6h8C+Xi+AsEcZMCk2U067qYn5T39+0/73T3+quPPT86IkvIQzH8hy8LOf/9wOHz5ctmvBkwkKtFwl6p1robwvAiDct91WaUXnl4fijeXc+fP2qpTy7373W8d2L9el45232Hen0OTi+OzjD+1f/uX/s4MHD81p5AryWys5UpSvra212G5P2Y9x9Ij8+ZEscq+8+qp7hgFc+XpsyoEV3MC1EorYu375kv3y179yfcGCVk4fmGseU62hjRs3zRhanbtOLWpITMg1KL7sJD8qky/lemtkVZht3pdYXcijMwFnT0DCpBaZiAeVV4Hvi2ljYsz3rthuI1tvWMPAJxbtlW8esNInLsCJI47WHko+a+kN21yRpwlNW8zZi9sncfWsje7/yMYOfmmpbpnec8LuGFoYS0Cuki/utG4vjnfloSXn8ZBCiSbRqet8dVBy1rl3P2Ghtdss1FheaFShbkFKHDt9SGDrfRs9fjQDfrJaOSyjTUrheMP3PWzp5nYNlEEW32CfE+LKfS+1kTVxUCGk5OCgkUNhsXgG8SxILPV8C21/UDwktUceeUQmzS8MJe+3sboglhuQAPmRH+zevXv9ns7XcYRfvffee/Zv//ZvrmhYJRM4UdiKjHl3E0igVgqruueee87dO8zbfpvn9//1r/9Tq8OI/fCHP7T169f7PV1Jx2E5GJVv/EOZwn/z4u/syy/3WY+iauYSpOBmaKGc/UMP28GvjigU8OOSxpC7M1YwUi+/opU7v1GeufvlCiSHwFy0jBXjhP3qFz+z115/3QG+cq8L5+WBBx90ydlmOlfJAEEuX8dFYKJnSTkkf3C/NsYbZ0f0WIZHpGjqpFN0/1zDDQ23oU7KcExZ8YohPcKeT7Uus9TWh6yhq8NCZ2Xe71fyHvnrUypckThyQGS6hMUEHMKbtlu4dZEuWPJQp8iNQkVpJQpK3rqqVfV+G9V1kkp1KbbUxL4aF0o0hNIKFQd4Jg6e+MTxEBxTkkka2gGn0mUSnQJDBz9zyZNSqtUQFWkzvGiFUwATR/v7RKInMlMmr523kUOfKXpClhGZhMeb7nlSvIPhXY/Z4JrtlozXjX9V7Aeemkx552KPyOxHeu8RZUcaUQpqT9wx9adJpcf9gI3Srj53e1NDA4Dw+uuvOYIUk4PfBkiAj/Dyf/2Xm5yHNGlv3b7duTD8Zmwspi+sbDoEbt555x37uSwHWBAqnbyHa/z/7b13m1vXlea7DoDKORdzJsUkiqRyspJtSZbllmxr2p7p5+mZ+fs+z/0I94Pc6e7p2zOWO8ljuy0nSVayJEu2AklJzDmTRbJyAHDu793AIYvFKhQKgURV7U2iABycs8/e6wBnvXutd61VzAoqn3nciX26iNL6xqOP2Dtvv+3yGRQT7SFA9sUXXzilJpfVtylfv4YVdUzVI939u/QzVJ2Nc0RyffLRh/baz39hf3j7ndsODjQrza+WkPgH7r/P9iCDvXv34BIvvNqlrAbK3/BLrAgCDEPIdicgoYl0/dOFB5ZCsvp+D2K92Iub8Oec999e+5mLTinGtaBxCVxvwrWwFUKswhxztTlrTRELdVOuwy0wjuVgjNXc6AgajBwJs5oQGIn0nCwFCRRfxFET2GjEikB6fRvEdJ9XI7NirJfwum27TTkLg6NHLDGIMuPipVGi439632U0NLZVrYPU2NoJmY7c7Rw31yYiYjiG8iTPfXI/K+sDXxCxcIKUw+Qm4CJeb4CnGOmS4zoFqZOLaeIvxABNkhh0PGop8FILZ4GEazBX935iAeCoqv+aVW+9D0sCGSZr6jL1JEC5+TZ3o4X4KDJi+tRRS0KGHCc5kwvXHL1BgBFBdKKl3cY2P2wjPJK15D2Yw3k0Hl1vERM1q7k2GWgUBZOlHzgXV011YX3N9dy3c3+Z/vTj3bVrt3311dcu5Wsx59fNZN++fS617VlWpC+99JKzJCjfQqlXQPouTfBbOXvuvKuS+s///M/2+uuvWzFKbqa5C+zosdBAQlNjg23h+u/Af34KC5CS4RTTVAL6z/AR1Ia4Vzz3rW/ayrXrXVKmUis2ZfY7fuyYvQNB8idc+89RzMrNcKeukbKS3rVpo91/72575/33IG3uL5jUF10D1bvQnPpZOI3/4Pu2HatcO6CuhhV5qZrklQRoKSLlc8KCf/nLXziAcIbvQrHgQGNUvo2nn37a1ovvwv0mV4v/P7RcO0z3mUOfmNCHRikxS058Mckb65WBcfZbv1LnT2Aq1qovCkETmNVrRTqoeFNejWNCQgTGWrpsqI1kPRxUJWsChL5ASptHmi9s6hzlc8+fhG1CNUOZh2S6EAhhDE5TZfd1ij56rc/x+cDARCvRx6kjNnEAxbn3Tzb2lz9ZGoQc4gO6TsDQtNHJAgaJWt7kr59zTlVyCSRTWSIkuEmiSUPWC/sBLZcIv+nDigFxMQ3K1Zyc2tRc9Caa0+RnRUKoVgQ8jZBa4hMXzxMl8YmNf/KOjX/xWaYYk8IZdQxdwEq1VHu3Xdv1uI1s2mnp5s5MUiR9Noem0MYGvisZ69McDmRXERRHiFwY5TsnkNCi0MaOWmsEqBbS39zOfnv31u+rCpmfR9EqPKwUplndvOVyUKKiJNe/EUJkBBDi+l3MEexNlogzKcOmFsv7COP9l3//N/unf/pf9hFx2sVYQCafY/JryUe1C3ZhIt29e/dNhE6Vf79wHuY5SurkyVMFgRP1Lx6ILDmKEy+ntWXyvNxrVgaqm6JzShkJJBSrYPX9kbtnP/0dx6LUCIdIq2spUJ1nJoLaLWObskHjUgIh5TgQ+fTTTz+1n776qv3Pf/xHl6ZY4KTYsU85pXsrgt3SpUvt4YcftruwiM3UdB1jzHFiIkk64qvut1SK76P6kLJWcbQJ7pP6Hakonu5D7rfEcyHNhcwD6AcAIMcPH7Lf/e739j9wz/36t781RX/IclFs01gVSv23f/u3VHDcMCvXZc4WBA1Qq8A2fL9n0bVqLvQMhdXI9llv1ugcKfMMC/+GIFW4qRblUQtIGJnITxBawSaJarAla22E2MA071s//6PFqWHgGko+jWAnYHEn+aElv/jA4j3dZsvXW7xruRlkx5BV99QWsJq2y2eJ/wcIXL5EeCGRA5cvZqIjMFNdt3HrQE2BRxwAGWNFW6zl4JaxZC0J2BAwHkxyNyDHkNS6KZJ5iCCZPHLIEq31RHistthSiCedS3HDMNeprhVuFrGBywALygr3nbPw0mVLoojSV6mxQLbGDBlR4ILGNQk0p95uG7vvWUuu2pblHRSGgCSqWb8f7sS3/kkCHAeV3lumBMalBFv6DuZFbr21u4reInCwnRvfow8+6MyLXxGuVuwqXCsPmf0V/iiQ8MnHn9jDDz2Ekt1pm9ats0ZMpSqDrpuqWvQ8raCkGPggoyBYJFBKXFnn3n7/j4QyvmufwrRWwqZCizFNe84pGzOjnLJxAbyV3BXNsnvH3bb5rk2278svnf+7mKnpOulayN0kRa5iSffdf79986mn7d5777VeYuEj37rOk+vaRwpfzylcrv24dPdx7X//xpvOlaTvgRIM3anIialyUnXHDXy/n/nG4/YeVgS5XQoNDYz61tycC+2dd7HOfWk74Vo888wzdt/uXbaOsslRAi/JMZcs1V8kzzRAawJAdRI99SH5DX6N5U0WmBMnTpbUPaeqjd978UUHrGazHmh8BQEE3UNEEGsk6+IIfuFx3Az9g0kX267c94W2BvocT2BF0OrY3YLy6Emnq66xdM8KmwANj9XXWT0Eu+A8yl3VEFGIetZj/MoFi7E9OHHaYmRltIZmFCCpox3pMmBXzioLxijWA/z7KR4qTJRW+CLK+JYGQIoxXhESXR9FuhVu6T+7wYVLMkYSG2fcDRgArouHL2taERSDFHbqYxwo/ODwMeaHy6GukfnJapL5oqqsdagqR9zQQ3IapIco3cz8Iv7GTefXl5uMlWkAx8jmXTa8boelJTMIT7e7TTDuEb4TSfe9AEjWxqwecFBIHoXbPfZCzqebdYvIivhP97MiP4bZtliAoHFoJSkugKwJUhRfE53yh7fW2JbNm2wtN7ZVq1a7FXMH526sq6XMOKuiSdfbKYXxMfJQsGKkn/O4LFTM5iirnT34ST/fs5cV6nEsCfx2SrDaySU7ERQXGkkxmq9W9t2E5z337W9j9Tljv/r1r0tiRZJiU50GfQfOsSj4+suvnKXkbszkK0mWs3zpEor2dFljc9O05G4dL/P6MAuuU1hnlNb7EN/PL3GF7QXInDp1qqygMJLPXJ+bWltsy7bt9uSTT7p5F0P+jM6t77d+Q3r08Th2/Ji99eZaSJG7bd369S4B0dLeHusgGqmakMvJv6OoDyU5krWgH1eCrDuHDux3IZV7+V0KaKmEd6l+RwIqTaRT3r3zHvv200+5KKl8LEcFAQRNUJbvxoa4DZAHoX9Apl+S16BcE0oOJAQxS1P0Q5Ue6ijbxEavRxFWTwQ2Rl/ZdWz0cc7nAEtA2LvKhkHfATUbakmaFDt5OMMT4MaoJrJf6hqg4doJ3ukBWkYCAWRAuUfSWC9Czu38/e7Taf4wXJfIyB3Lcayw3T20CELiNGe5ZZNAgjgJAedJIyeN8TovQXsjrPQYfy6SzEMPNY0VTgSeGNei+TkTTmbTrX9lHIBNPdq9wgxwkIIEObTqroI4B1HnusJS5pOvdfRZPs8CjANYD5xXiM4a6qgJIqarOl6QDVMlRDKtRp586in75LPPXIIhmWxL0QQUtMrTQ4r9A1wBq1evdg+F2C3BfN9Lghn5VsWsV0uxwhkGTI5jQesDAJzhWPnHT2CNOHr0iFNkpSYi5pprPquzXMdX8meaWw18qYcfedSOIl8pX7mHSuF/1rzVz0mUuR6qBriBgj+KnlitsEBqGKj0eLUDYA3OZO6OwXWrSAQBloFrV50Vah/A4DiK8eLFSyUbWzmuSyyesF7m9u1vP+t4PR988IGbS6nOpQgHPT4jT8Kn/FbX4NtXdsLVPFasWGZ1Tc3OqlDDQlZNQHsEl/e5c/wGIblfu9JnX2IlVDiy8lYIhJW6yZV0D6TKJ5/4hsswWV2T+V3Pdp4iAEKGrNiHslKT5XdwlMgBzJQ1s1gRkI+r7qj1cJNC3iaDBFZPzZAgr7GPKvbxlHdLownHm7ttYttj1trcAm+So7/8AqXP4IQRpukso2gBB+4sOTSOFCeN3y6ggIwOes+4M+DAfVT2Pzqns1Sg9GXpSGPUCFOAhWhuU+fHe4VJqhBjpuWYn3ZQ/8g+3d1l/fc+bhNr77YYoYwhk1QOi0KajpL7SKGN4iDMtSl6YQTewQhZO/W94evhQGQ9/RU2ormO4M7t38LqYxcm4B+8/LLLuS7TcCksCZNnpP50UzrPjUqpW7WqUEXJHpKnqAS1XquN4667JHcUz1cACFdRFsrsphWOAIcet7MJLC1EkmIkQ10Hpd5+CD/7QRTHzwmxO8c1KrXpXhYFXXdluNQ5FWbbggWhCmXW2dnh7uca0zAuCq28BSrHsSLJ1Xenrn0ko7k8KzpInJXvvfhdVuZ9LvSy1LLUb0nZDQ8fOeK4HfrtCGxVVVdZKy68ZoCCmn4rlyjNfu7sOWeBcJY5fkeRPOcyr3z2VQSLuDQvfOc7WFGeBvyxiHYKbPajiwAIZk34gUU66+OmnWL1PYCboYFiTtV53Lx1sx/lGGk3AYIszrBqlG4rZnEp86uQ6MfncuNBY6hmA1rOhrtWWnzJKqs/vtfCUZTpWFaRSib0PWPTZ1M1j7pEUnIn6LOMSyK729R9Z+y4RB/o/OoKEAYodFaEtKwt48xPY586t6nvo2FE446e2S7LSLyZ2PK1cDTIsTDR3IG1ojiXgqxJ9XxH5JKaa5MNaUhRMnItaB6MVQm6moh4EUBY6E0ryW5W8k/jPz1EhcZBXAPyI5daGU9V8CJhyfypc0VmSN3EdEOdfDO7k/LXOPRYyE2y3wIX5ZWXX4LR3mdvvPmWIxuWct7RtY+UpUCA/Ov67kmx6FlN+8nyEH0H5pvcNY82XA3f+da3TFlGBYjFk4nmXar5SMnrIVmJ66Dfkc6tFbweUdN5tY/2LWfTd0hRC3/1V39lTxK5EPFN8j1nwQBBJ9DKsLWpiuRHoV2+BmFOBENu6NVVmcRJsw1Cv2+x093vPKuo9H2sYVLUhyKtLm6LAhcmqUQ1cfqkLI34Abo2up/wkKk9UqRagTvzAcpf7gVtl6JUoqKoiWOgilIam7RUnuArOrwsz24sjEfPGm/IlXTziuSleWbnM90AnGsFd5CUbkzojP/uQuhLrHBJai04BDLdwXPcJpCg7ufaZBkRMVHWAzXlT1AWzybcC5OMTnPtdl7tX8V1WLVunb30/e/beUy5kd+znJOQAtJqqNTWinKOeaH23YgldCscgZe5/mdYcSpkURyScrVIwan/Ysl85Rpjof2KhCtXww9++IpL1/7qqz8tK6FSvyOBgDvZxDu4Dyvky1ghNxO9MNdS8kUBBE28GYvBEDfsPtwmWuzLVyyiojIr5tPEtxvGXNWA1o2sCFJ64iOIqT6G41lhkXNt6apaC6sUoZBR6JFSFxhxQC7bpS5imGafrJJ1wAGyIRjlRpsEDm5srJBX0u1SwIzXJWfKykrTEwiIgNDU0QbM0ckke6w0uDgac5f01J5vvHeRKXwPClHmui7K0DlGcgwBTzVFLHRAjNX3YrE0Xdv6xia7e8c99hLZ8JKYd/8Ae/p2Z6arNHmLga3QMslnITeFn7ZSeOiBBx6082fOumI9fyGc0Le5S0DflQSuky1bt9qL330RcuBV+9fXXnOge+69Vf4RSoJ0P+Dgx6/80O7evo3omLmlxdcMiwYIUuRNgIQGajQMkjBpTP7iWkIe6yAs5qEZBCpGWCrWsq/SOEdNHmYlT0JH2ACWhBSKL1/lpZQBKQBCqrbRQrL9BYTjZBz1UqacYdJ5bpyRV9elcWNrNJ758OwUflbmbgbX5zPd6KeZo46V7p3mo+l6mG2buqtB1vmQVqf2pdDZAVVtVNQFTd+NRiIXlPcgn+/V1P7m83uZJlWb4aknn8SllHRRBO+9/35ZV5KVLq+pJttKH28x45vsQ7506aK77vJ1l9rVVMwY58uxAglSlPeQ52Lshz9wvI53yfSpegsLpWmOyncgUuKPXvmBfQu3SluBtV1yqpB8BVYPQOhpqyIVbiazorIrDpISt5kber7KQZYEWfWz+s0p8sZJXIZr9Jc/RMiMPEzUWFhHuN8oJrnUNGGK+U5wkeyXAU9xwkUJGy0SJeg6yoJQSBMkmMBqoGqhyn+gpsydPW3VLimX27DI/siX2EV0wRO1G9z/AABAAElEQVTErqdA1ZfJz7H/wEFXAKfcfsxKFPUwZnY9ZGlaDK0KPsAyIg3+y3/5G8J8a+3//bu/J2PlORdWuFhkUMrr3ETF1PsffMj+L74/ykHwEXlBZJUrNSehlGPOpy/dJ+RW2EgSpL+CkPkiOQ8aW9uxFmMGL6CVBCBoldgKSDjHM1w5F/I4qBUf5MN8xoWRwAaVHAlAILZ7pFakX0RGk4thEFOz7gVzuh2og5t8BQVIaBEdIvmOUUiir6HHJgBXhbTo2iliQdcuX4A4+VxJXE7DZE1MZrkiuoxyW7XwHVtIdRcmzzmf10qNqwyCTz39jDOt/6+fvGqf4JMWE32xrSYV3bKoFCM/AvmPV65ZYy+9/H23Cn6VQkwKU1Xyn0Uli3x+LLPsI0Xa3Nxs9+G6+b8xvb5KaujfvfF7QnfPzVuQoDnJUiC3wt/8+K/tiSeetOb2joLBgURYEoCgG3gt7gARyJJ9Yy4l7jjWBGVEbAAhzKYkpJi0UBzEn6DXYr1HiiYyU8vvPESfIjUumMZU5GKR/Jx74A5PTONQzYVxWV7wNUTXYK7DqgUY1AIQZrvuM/Urt0L/AFkTs9aDJngHXXy3BBI0xsXcEigJhSA+881vWVNLq/3jP/1/9uYbb7rVj1cSC/+boTLGawAJ333xe9bI9f+7v/sfLv6+lJUyF74UMzMU4FYo8QNkFJXLqq62xv7PL35ZlnDS2yFTRSs89cQT9p++/7I99Mgj1sV9olDLQTTekgAEdSaGeQcFm64MTDiAMKGb/FDKkRXzza4ovsGEqztAh5MUgRSNkuxM2hSNf/ZnCAnKkOiSHBbUweynKHgPxuMUXqWMS+Mociw6XByBQlMgi3ugsMZxwGWEBRtriAnnu1Woy6Lg61OhBwokdJOl7bFvfIPLFVo3ZKR3SXN8CL/0QmOez3QJZGbXY6GTFKebfzXzXr5ypX2T6oxx+Fu//t3v7MOP/uTCUheju2k6GeW7zVkSyFGgfCPV5CuQVeHXv/2dy2BaqsRk+Y6lmP0EGp966il7iXDGh8jA2so9QQmiim3F95AdgVb6jazydTMfGqV0M6u/EUiL49zYMS7kvfJTQJsiF8SVEyjgpcuFMIG2KMh2oIMwVetfJd5MKsFykL2E7kms6biKM+mCzrHpCAEDsGLBTWGyQ5ATFeIosFLjvlOLI+/BXISm1K0iLj7/7LO2BmXRu3SZq5wokFDJvlSt1FRuto6U6P1UQy2keI5+x7qRN+NHngpoAyxXCbJQ1tYqTbTuIoU1KeFKBiAiLi5bttT++q//2latXo3rqdd+//vfu3THymhZqS4nEQR1/eXr1zgrxeffSoIorbpXEgbZyu/qNxRK+prshsqQqHDfSrTO6TugBEy9JNR6BrD4gx/+0NXWiIqwFfbNv/mokgEEdat0xd1tNSbi+cVrJIHgJj9ICmbuCa5OQz4KWimYk/ANpJ8UxSD+QT9KQ6tK+R3n1HSDSGTRyRwPndN5Zto5OmcRCnOmrsu1PYa8lOZ1lGfp6HybpijLQQPXrJAoAwE4cQ5ETBwaVkFw0nDjquiGmNjaVNKvab5Tmhf7xcmTsGnrNvuvpEXeuHGD/ccv/8NV1VO1Oa2AFIddKTc33bhUZnrLls22nBvxe++9b0eOHJlzvgXdRxTCJZNqbArC1qqpnpvmsuUrnJ9+rmlr1bdCKJeSeU6unGJARrm/QMqGp3oZ9z/0sPUAEDdR3EnX/wuK/CjZUSHgqxxjlkzlGhF5btu2bbaMSoxKHf1nsjfezvTcs80tRp6EpatW29/+t/9uO3bustd//bq9/Ye37Ri1UDTOSrHOZEB2HdkRl9qDDzxg33r6abgUD9hKgKLkXMpW0juvlHoLbPORZoo44S8YJLPiAC4HRy3EklAnU8IsTRhAVgQ9FN6YWUhSoAdlkZorB4GY14BEI3aB8ypM4jY38Qu0wpFc5kuTIydT+jf/QWvPYsCBZCMweenqONk4M9aDOCvBZoBBJ2WdBRR9m14C7uaL4tVqUuFMOzZvtg//9LG99c479vEnH7tscVIUWlHeCaCg8emGJhb+eorYqA7986R8FZmqnpLDvyCF8FFuwPm2SNmoIM7atWtvVeCcrx6Aq3O1YGFQZsC5zNuVw0WGm8lgqKJVlQwQJDOBBAEayUIKeO3adXBS3rA3eOzbt8+t0KXY5iKDfK/FbPtF176e8cnKoYqHejAY+98/+Yl9sWfPbF3c1s81XrnvBDxVSlrpibcCvn/7m9+4SpUiA8vicaesM/ou6rfUSQrsnQCY559/3h7F6rGCmg+69lHdlFIKraQAQQOTibmdnAgTjSErGFJO4mrQTV+pdvMBCNcnB1DIctSce0I8hPxVVqaXAGEGoMKMw+J6zyV7ITAjU7izZE4zuCmLm5Kdt9I6ctcWAmEhlgPNxdVbwEo0EkUusK2K/nrJ0qkcG/MJYN2paxNn5dwOY7kV03tbV7dt3rrFvtr7qL334UcOKBw7dtyx3W/3+GRO3oLCfeiB++1eSgwr4dMaKXZ+z88BaA4fOjgngKD+HnvsMbdy0go/mObL0Uze/Yfvu5dKlW86k/tcCHxyK6gE8rp16+acde52y3by+bRylEJTzYHllG/eSd2BvxDh8hGFuD4lsdKdWKlLaW3m2j+GEtu5Y7tt49qvWr2G4l5HXZy+FHIlNilijX3Tpk3OUrWBkMFHmINqVvyJwlZy493upggWWd+2b9/uysA/wO9pI5kRe6n6OdfsiHMZe8kBgk6uUMV2Ku5dgX1+FZPxhFwE5DEYr2clAVAo5Guh+4CSMqm4UsVEMsSomkRK5zA5YoGQwpSJlfr77zwsgJKyAg9828pC6VJLzvJN0nQdOOC6VDmUNMsBM3ws18IAbgWBSTWBgzYsTq01CVebY4bD/OYpEnArNvzvS1AQPZAYN1P7fcNdm20HWdS+2LPXDnNjvnTpkksvq5TN5UgDq5urlJRWYcsoH6x47Pvuf8AeBBysRekq/lxNq9qdlMb9JtEYpwkt02p3tvHIf72DBDevvPIKK6idsM75nk7TlGFxExaAF77zgqtf8REEPrlbZltFSynsZkxPQvZaCa9jvjXJXlYTPVavXu2SAcmk/8cP/mhHDh9x113FluR+KIfvXyClra3Vurt7XJGijZs2kub3PrsfsCaeTB3yna7scaXKWdakZfotoZgFdO4m8ZDSFX+Ka0QukuNU2pRVoRwpyXUt9X3Xd7Kbgk9r1qyxbbjm7tm123btuNuWYzVQVsi8yX0FCrksAEFjqYWs2NNe7SoyDkI6U/IkZcZrIvtxISBBK45Mil2SMeUJEpJB3MZQdgVHQOQSqhR1Q5MFbb0WXrlg4fBVC9L4MaaAhFxdzOUzBw6ISg0x1YJGuMNOcCpASYlbGoCQrGk0PedqmqYsBsp1UKjlQP0ramEEnoq4Bwpr1GmbKCMu7kG+0S+5xrlYP5MvvgVewsOPttu9O++xYydO2Jf7D9gBas5/TfngI0cACxCwVABKylNuCEVAzMXPKkCim6geMnPrhiYLxorl+MO5oe68ZyePe2wFCX5qUOaTV4wylXZjAXj+hRfct/jVV1+147gargBcpt5wtUKSS+IulP73SDctM/VS/NgzNbnImkhP/F0Y3RjXUYYp+5I5X7lyZdr5qX+RvaRMf/zjH9vjjz/uFNxM/c+H7boWGwGIAgqPE+3y9VdfOdKd5CCOgoCirvkIVRpV22GuRDwR5KJrL2Agy47KhIsHcxepjDdt3OTAnLgmUna6f5dbmZXrumiuUtKdyPEegKm+p5999ql9+OEHtn//QQe4ZKHR70jyLOR3JBlG8tSzQJ5cB6sAVlsAJbt27bTNgO1m3F5yg+RbjbFYmZQNIFTxhWglk+JQS5XLijeG+fhqf6ZwRUt9YeZoORlcIiUUpDgOWhFk1pzTi2G4utFSjT3WwUq/tNQNuRY4c0ObxTbutNjAZUsd2gNQOI/uLjFI4DSaY8gcguYuCxpbASOkBQWUqN5zSa0J6kwa2v2Yp5eptkbgoFBCYtSzrp4iFi5eGb9uPWjA8tTBd0ZJkQoNlYz6X+zPzqIAUKhlFbJuw0ZbvgplgXl+kMqAIjEeYQV0CKBw5MhhV/JZ5WcdGQu+gvysU33X6s/d7LnhSwlXc6NSSeglS3ptFX2vX7fO1q9eBUBYjpujyxoobyuTvRTwZHAQXRdtWwV4kEVgA8rsV7/8JavdD1wcegpfb3QOlcx9ABLWs0Rs3I8lohvW9nT9Rf3qWQCkCyvG8889D7hot//zs9fsE7LlCYBExE3to5t/T0+3PYCVQ9wI+Z478PHO1v/kc1Xqa10rKRvxU+S3luxE2hTn40ssNloFq2LnQcqIi6sxQSlvlXGOfOyTeSuSh+QlbpD6bSUHwxIsRL1ET3QgZ13HrQC4TRvWucx9AoS1dbVOvpUqn7mMK5p/K4q7AYW9Zs0aOD/ftgtYYw4hP1nADh8+TKKlM8j1TKZWClblNPJ0egpdFclV55UsJUfJsxpLQC/gSi6iTr7rsliIQ7OacwhgKVpJsqwFRDi3ubsDz2X0he9bNoAgHVOL6XlJI9UeISuOAhDGWfr3D8B0Vz59siwW0nSh0B38gGNUe8xNvEqzTxLFys6FnCr3MWjtEaohjTZ1W9f6bY5NPLH3Y0tfOg1alkovvvGdwn3BH27ysSWrLNi0G6tFm6X+8pZZv+BSaVtYXW9hfRvymjk8LAMOMmW+i7EcaORjzG2YiBWlVXYoiM7bKPzV01DlrD6lnd3i7U2/lWoUhR4y/3e0t1nvipV217btrhytVpCjo6wkr13lxtZv14aGbWigH2V6DeB2g92rVWBLU6M1YiWorq2zGm5YAghNbBMxsL6h3hogHsr0r1DZfFY5Wjn1AjAeb3rMNnBTfIHUsM50i3VDwKKXm+ZKVlJScl1wKxTeqBtrPk03YVkavonFYROrr32snA/gPz4NONLqWZEQemzdtAFS4mZbsnKV61/HLZSm+2VVgt8TD6NWjywlAlgiYUYWBFlWzpw5YwNXr9hVrv8wshGIEpiILEq6TlJU7ZRMboD43cFzJ+8bWtvc90oWC323GghfVQIibiJlFaHmVd4zTD/8CHQJeEmWXd2Y/1evdgB2eHjIWRDOn8+4cYb6r7EoJvoBsC0ejCwMaupDroN2jm9taeb31GLd/CZVlKsWGapvydMVJNNv6Q5+H8sGEJwguIjKitjRXO3cAqr0OAZIuHx1wtpwRaqGQyFNNyowBuZ2IiawJOQMf9QXCaCiL1SpGqm7Wb2jtwevWu2lU1a14S6L7XjMYg0tlvr6U0ud/MrSY5nVfaGnFaVB5wj4sgS9q6x61+OWXLPdJvouWzAyhDtDgyhd0/lCXDKhOBU5Bh1xDooBB7IcCBxcG5xAQYlhnSF6tgIm2wAHysLoW3kk4G6sKIs6PTALd0w6TSo5AYgft1GVekZJDGMu1c0tavoFSflrdRhn5a0bl0zLxd7A4litpPh109SKSXkcdDNVv9F2KahCmiwE7ZhlW+hf5L3dAI+r2Zz7ugnr0dXR7nIqqBzwQm9STrpmekRNIGBwaNDGRzIuh3FAobYJQEQAQWBN0Qh61PDQaraGxEIxOC9zvbcKfEhhRn1H48j3WXNoQJEK8N7pVs38q8nyKrAQNbkZRvj+jiG/ER7ST3I7REnMNH5Z1iTLOiwD1YQq1yHLBPOpNI5GWQGCBKYvTzuhamOYWsZQ5iIs9gMUquEoVAMeClU0Agl4MFAuweycBCm80uGDzPeA/lIDEFSOfmWpex6yxJKVWBEg4TSyAmc1FZ47aUH/RQvHR93qOMeiPNOfFtFyWzBQ9DR9NFrQ0m3x3hUWX7XRqrAeDCcarO/oEYuB+FvgICh7ZUmazq1V/A1dcEu3OlOCL3adCIlFKHCBAX0PrgEMBsi0OY5lSbKp42J2tRK1gAXBtzsjASlIBxxQmnei6V4RKe1Sn1+AppOVsx6+3SwBAbEWhYPrcRuarFXiQMxGSp1pKPqeaHVdKGicqd9SbdfY9FgIrfwAASmJyNYOK30UJXSFBEqq06BiPNXVKTIvFu5rdl8UQIY0G5ZqZ6UWWpOaVVMIlBL/aL9SNrnpFXs3xEr+9OmTFp4/ByGzx2paAAdb7rV093ILDn9u6QOfWvrCGawJRDkkRwEAWqbfOhIpSLd6x5UQaKUEukwsX2vBxl0WX7PVEs1wHfBTDeIvPAFACK4N2Ma6NIq6RJdP4lGYyAxi0mYBuYYiAF006yQy6Id3oFoLE3wPNPdavgPiHSjyRYW/fPMS8BK4IYE0q3mtSmXR0bMUq+5pUpBNrKTl2qliJTsfmqInZMHJcB4ynLS5jltzl0WjWMvVXM+7GPcvkYbJLTrd8kU6i7XwCgV5mYQ4I4S1RdqyKJCAVhNxkYg4zKH4tFE6CoOUHlbK1RpWQ0q/WvLmpkKWR0xln8MM3t2zAtLOUhQ8JqOe5RY2tVi6c5lNnD5sqXPHzE4ftZAfN0wV93BggT5cMQ3GH9TKQYjFoINHJ7GtKzdZIN5BDUgURCLgcwYSmerAr9UNAmVayuYsHMhJxDBdr6jptcBBfYEZEqN+9OxMbYpmceBAiE4s+BhFvshgRs6DOsIbJ5978rH+tZfAYpOAyG0TuHsuUdr74Fdf28EjR9zvvw83iZjsIm/uunu7bYFLshTXjMzWcS2IKvhXJPfRqZOn7Pz58wVbEGSil9tosptksX03btd8S6tlcoxahXYaIQ4sQREMyPdMPuaRrP/ZmkmrjIm50GI8QpRuUe8UmV2v+qjt8umUU+koDvaj3/zWOleus56uTouz0ufXa0FTmwVrtlisd6WlhiD7XDwDMiLyYHzM0iMQV/ovOXAQBxTEAAEhIZPWtdwS1O6O1QFqcFcE+KbUxH4V+/pzSFZf/PkTe6Cnxmr5kZSyiYPgziczozORZHqXO6HYUMZonEOEM16+ggUJkCBwoCbCqsCBuCouFCra2T97CSxmCQAOUmOjtpff/M9/pZS/f3CMeUWZyJctJSky23+Qd2A78flPUwL8CbJU9hKR4QiJFSo71TY4DSFScxAAKqTJciCAIHeUb+WVwG0DCJpGAoXdjCVhZXuNne4bd6bmUczN17IavIHPCuUkqH+6d/7xer53I3Aeyt0a8Gs2E9a474vPqSX+hrV1dLoYYHdeBhM4RY+ybyU8sQPrAkBB+QvC8RFAwqDMBxarb3bZHqGFE0HQZHGREt1y/sboZZbbu+cLF3s7ACBpXLGMEEABhMJ+YDd6zr5SN+I/EJURQJaRa0aprWVLkAenmGuiM8ieMwgYvEKY67CSWOh8XKtOSInLIPgoXJJT+uYl4CWABELQ+giWyTcpvvSLX/0HlTo/cCF0U/NDSFiK+DhJWN3pM2ftIpaGFykDrSRPCkGtxHaMEMv95GQoJlGT+CSKblGuAN/KK4HbChA0FRHrlrTW2Dgs9nE4CSrCpJTMTrvzeTHuBvUvPVODclMbL7M/W2b37tpqGyVM7HVKhLYThtUCslUY0WT/mMz2CYiLIi/OtemmoB/Vb+n/K8yMGxowIyrRoatfPdfeZt/f+TaRW7UAghBXkU1YQGGM1wh1FUhQU7eKYFmCa6GruTJvZG6g/o+XwB2QwNjomEtm9eq//Iv9EuuBzPK5mjIjvv/++y4ssY2wQ+XoVyx9JTVZC0axGkSJmgoFCLKcNGE5WEZ4bTNRL76VVwKltVPnOVYpiHYUg1jrUuayNCmT3jV804OsMMUlKLZJwdVqZQrajMBHsX1OPd4puvpqW9XZascOHrCf/exnruSu/GuF/gAmn0NhRkq+oX5/SRKZq+fPcK42ClSWmOkvHKCHrAU8i9NRCnAgzsEo7FFl0BwnckFNxhGBg94OCFak4vbNS8BL4IYEREjU/eO1X/zSPqaWglwK+TTdK5TwSPeK/fv3Xw+py+fY27GP7ocnsHbsoUDTkaNHC74/imexcuUK6yHxU13N/CBm3g75luscd+QOLV3USKKkHvIjaMV6nkx6Y86SkCnzq8mWwpKQwGwfb27NmPCdBiweeEy9EO2wI7+1rMm+Oh66Qh5R6I4q6yk9p8hEQr35NpnjU6SGleVAP/Sf/vSnDhyowMkza3vs3tpxq8EVkNHo+fY6+34uV4TInOJscE1KIalRuAYXcSUJHKjeggBVHde9lxTc3bgX5MbwzUvAS+CGBJS06qu9e+33uBeOHz9xU/a9G3vd+kordCU2+uSTT+wP8BV6sGKq2FC5Fke3jmDmLRrbEC6Td955Bytoce4FJWPauIlKm1hI4or48q2sErgjAEEzkvW/CWURQFBUO48iEUgYYbXptJOIi6w0i0m3qwiBmAoP1ZPEInGRxP9jmZOV8G8DSvVuMsm147v/4twVVzlNIOE4Cv2pJ590+d075hB7nZxIumph7777rr311ptUEPvEpUQVY3cTlorNTSTmEMIqcRNJMUYNBqVznkxSLPQ0E3BAhgEIsiCwKHKtgRwHvdRY6BIpEXAgwOCbl4CXwA0JDKBIle3xHFaEKLHOjU9zv1LiIZEAf0N54g1r19i6VStxR9Y5wJ/7yPJ+Oo5r4SiW0N+8/rqrB1HM2dx9cNNGa4JMPZWrVUy//tjpJXDHAIKGowWrLAkhYCCNW+ESJDalZBZI0CpW+kPm6GJIci6/QFUmVHB6ERS3VcmD2nEzKPVo3cUBZxL8C9W+FIq0f//XrnSswpDES+gmZ3k9CNhlISMVrVwro4AJ3QgGQP9nyId+EFfFZ5997qwRQtsyMcoCoZCmZd2d1LcQibC4Md9ytMwFyD+IQ5AUsbKIE0SExCFcRSrfrKhOAQGBgy5yHXhwcIv0/QYvgesSUJ4DpYKeKziIOtDiRHUB/vD2266S5vZ7dt7RjIPpVNIuUJ/g9dd/ZX+m7LTSOhfaFLWxlLTcqvng+QeFSnFux91RgKChypLQLEsCK0vpqUukYVamvSHlSciuMBuKCIGMxCEzlyuRkO0z2l7ss8iCNfUx27ys0/Zc6rcD/MD1495/4IB7vPfHD5wVYf16FbJZY63kfm8DTLRjdRDX4hK5z/shIV2kDOuXX39tH1FvXMxk+RSjVk1s85aOFlvTSuhjmciJ0bmKeRbnYARg0EcyLBVhUhM4qAPkdbdU41LKhDOW+BIUM2R/rJdARUlACl6LgkI5TAqJFqnx3ff/aF0UUmohskqFlJRY6E60KwoDp+rhz37+cwoZnS1qCIpaUPnwjdTsqKfmg2/ll8AdBwiaokLcmiAULiHkTeS4C3AS5LcWcVGoQcChWHdDKH3lVsmlV0+qHfDM0kY7dqHZTvRdcwBBgERNhCOh5g8//ND9SGUNUH55FcxR5TQxkJWvW+ZB8Q4EDCbfHLR/Kz+GZyF03ncjfbrru2R/JBIeac7lLC5zFJHjTWApGMOdcLFvwoEEjS0CB0vgHHTBOXBuhZIN2nfkJbDwJKDfu1bKei6midz8i1/8wuULePnll12NC9WluJ1N9RY++PAj+5//9L9J8HTY3d+KOb94Fdu2322NFIlSOXPfyi+BipGyAwlZToIUi0DCdeKilC1uiILyJDhll9V4GZ1dcqlWMfjNbfX20Ma1tm+8xvZBLhwfz6QRlbKfrPB1cvkJT5065RKFaMUwuQzo1ME1wD3YDtlozVIqp9VM/bR070VSHCPJ0wg8hPgcXQwqvDRACOMgCbBETNTl0jV00QoiJLosiZ5zULqr5XtaqBIQCU8r/mJz+WuxoaiGn/zkJ66QkEjTqmxZLPDIR+5aHMmKKh7Vq5CsP/joI2cViRZN+fQxdR+Ne8XyZXb/7l0kSGqc+rF/XyYJVAxA0PzkbhAnIU5K5gZIbCcvj9kg2fdGeMh8PcS2NszUYsLn3VTfQPGyqtQ2nvdRc9rRrZTJKPRoR4Od7262IwdjOU8la0E+lcy0kljf02k/WNFu6xqJ+CiHewFl7ngCLFhSkDrHYwmrxZyQhVQ55SDLgavKiKVH6ZNVY8OZezhKtTeWkRCrEe6BS7qUT4c5z+Y/9BJY+BJQdsCVAARVzCy2ic8gHtPf//3fOwX93HPP2caNG4vtNufxIVVmr1KI6Xdvvmn/9u+v2XvkZ5AFNdciKGeHfCg+mipx7oBPsWnzFmdhme0Y/3lpJFBRAEFTyhAXyWGAQhdx8eIQpUEdcZFqkAHFffiXbAgh+pF8iJ1n1Tus7gOYvOGk9MGlEd2tvaziN/1Ed419sqLD3j1x0QbGCitGEvXcTVKkJ1Z22CPtVdZ5Z1yI0VBueRZ/YnAk6SIVVLJZ6ZNleKiBb9BEfYUlEBK7fRKkW+TmN3gJ5JKALAerV6+2u7Aanoe0fJUU68U0hU1+xApelkqV0H722WedhUL+/MnJ3Io5R3SsShyfOnHc3n3nbfvXf/+Zy+Ogqo3FNo3znh077OEHH7R2OFylHnex41vIx1ccQIiErciF5axA6+vjdpboBhHfJiZApwOYsVmpNjeR5hieSl4gIeq0zM+xqtDW9zba39yzmlTPKfvkdF/eIEFfej30Q5YprhN/woNLW+y5Fc3W2QyJM1Em/wgIK8JOCimtUhKmHKhLlhzlNJBV5yJ1FSbgimhksqKoKqMKL6nehjglvnkJeAnMTQKq0LhqxQp77tlvQ+o7Q9j0ZwUXNYrOrHuK8iOI/Kgqik9Rs2Hb1i3W293jKkG6gnHRznN8jtwJAjKHiMB6+623AAev2QHcG7JgFNvkWmgFzDxw//22c+dO7lX+vlKsTOdyfMUCBE1CSqeVCAb0llNaV8k4Kl7CKEx5KSo1+eWVvlmcnvwM4+6wsv1pInHSg/AFwnCdqz3xESBhCGATuRQi9Bu9jwYid0ITrhCFO1ZTvvq59Uvtx3evtG1dTbctoVAN1S/jrGBGMQVMB0d0MxjBUtBPhMkgqZOTcA90GST7Wq6TSjar8JLKQuva+eYl4CUwdwm0tDTbc888Y/uJajpDjYXTp0+7RcPce7pxhO43Ii7K3L937x579JFH7cnHHiPp0EZraGkF3Nc4ErWr5jrLj1d9iVclnoOIiCfhU30ECVvJnf6EtUKF5fRZMZyDaOT13I92795tu+6913qov3A7OBTRuf0zC/BKF4IqPDaxMl3ZqpLDMZdQSVUBx3E79FE2uh9w0IC/u5m0vbXKE3xLY5vbPN1nt+xc9AbxKFrrqu3h5e3utJ1UW/vDySsUUrnsQIJMe/rhCHFP/gGNU+VxdCRhK7o77JnlLfadNZ22s4fcCirfeluGHlgat854NWaZaU7oQhgBZ1chIg4OCfBkIQRja2nAndBWZe2UoFbJ5lKkaS76QvgOvATmqQTi/A678bk//c1v2pFjxwEJZ266VxQ6LREHFVUlS4LAwvvvv2dbt261u+/eYffes8NWYrlolOsBsvJMTVyCPkCGxnQIK8GfCMuWdeLkyZMuIkvZHCff12bqJ9/tzYznhe9+l+iF7S4rbb7H+f1KI4GKBwiapqpANmKyTjQCBjAnXMb3fQW/typBTlA2OkUyjhCfOMxGq9HqNYMInIQCfmzxpg5LszqeblVcGjHe3IsDCSQ0egiQ0E6BpvVtHfbrc112pu+KC2NUKOPkH5FLH9rZYg/2NtnWng7b0dVgq5trAUS3yZyGfEOiF1K1PJy/4QYiSSJXWQ2GkXnGepMmFXTorAYNgLI2XEDtPDcCDmqY+I0jb5aJf+cl4CWQnwREyqum1Pvu3ffagQMHXeIj5UaRq6DYJgWvVb+4CRcvXiL88JD96eOP7Y2VK2015MglS5e5XC3KWKhxRE0WgYGBflN5+1OnTtt58rZc4qFxReWbo31L9dwB3+DJJ5+0hx56yCWaK1W/vp/8JTAvAIKmIzeDLAj1JNypgxlfXTNhV9g4CEgQQW6A6snCCIpwqCUXcVSNMFAUQwNlQRO3N2+3xtteV2UPdFfb8sYm6+xttxOXiHA4fd4u90vxN7o5NcfJLkhOhG1LW+3Rnnpb1ViXATk3fpv5X80C9wxDAEIVSRYSNzOnR8hrMDQKOMBiM4xbQdEOagmsBM2AsY7mhHVjPVBxJ9+8BLwESicBmdJ7qVj48MMPu/TEymlwAYU81TVZ6Bm1QBFp8cQJPU66lO5t5BfoJNtrOxVpFU0xGSAInMg9IdKhHpMTuRU6hlzHadG0HauBcjisW7fOxM3w7fZLYN4AhMmiUQ2HGiIY6jG/nyYUUopMJu+rEBkHYklrbNSKFqAga4Kc5ChbMexDae1ZWnb3rFtilp3z+DgGuXAZORx+BKlyoqfLTi5vsEsjmZoQVQxqRXW9U7bVMP8ZrjPPTwLueZxh+l3cPGafLpYM5CJ3Af9d4znJxiTkwz6yWg4ADNw+7BBH5tWAgxYsBj1kvmyBd6AcEL55CXgJlEcCG4lmeOmll1wWQhU7mq30c6GjEPCQdUAgQOBkMjhQnwIUesgCMdn6Wej5ch2nrI93EY753e88b48++qjJLevbnZHAvAQIUknVKKYOFJWUaT+kxX5i8SPfuGLylYVRIXftVWmrTweu6JNAwmxNRYukKyNm/2z7z/o549Npa3mu5Ye3vg33QUsmTagM8ppHjEcpQEE0FjcHN4lp6QTRbjeeJVCaLDBKcz04TuIjSIijyj8hqwGfV2ElaAJ49UBC7MCdkMCdUEyNDHdC/8dLwEsgpwSam5tsF+z9H/+nV+wsZMUvqPQoc385WpSroFRWikLGKHCwfPkye/bb37JXsB60Y9WYClYK6dcfU5gE5iVA0FSlUCOQ0MxKdpDHxaoktRzGXRgegDjDTQgwjaPwqFFIdMDsLR8QMXsvM+9RjWKtLnOojpsDyj4f0OH2YUxCMXLXnMMiMwGgmsBtI8uBWg3goEvpkrGCyHojufvmJeAlUH4JxFmpyBf/yGOP24XLffYP//APrmJs+c98+8+gVNBLiFR45ZVX7KXvf9+WrFzhUyrf/stw0xnnLUDQLBxI4I8UVuYht0Ngfax8BzGNJyEwjqnsMCUdkgCGKsh1cvznAgH5KNWbJFihb/KZhwMAMhtQxUqvldNgGJAABZFt1MfAQtNUh+UAS0wLnIMGwIGwhG9eAl4Ct08CcRRnD1UMlQlRLgDxAZQh8U6u9Es9e1kOVq5Ybs+TyOlFohbuImNi/Dbzxko9p4XQ37wGCJMvgHzhbfAOlMWvDsb9VRz6AzxPjGZi8qUAnbmcFy7OAR3oFCSd5KNMJ59rvr+O5i0BqIgVHEUL+IG6B6+ryVJZz6OrmTLWWA18kaX5fsX9+Oe7BKqJwhJZ73vf+54DCApZVARBudwNt1Nezq2gsM4nn7RXfviKbd+2nQR55apMdztnNv/PtWAAQnQplA2wm5VvZ23CBiAvXrwGya6fBECEDMpy4PzzWjWzRNZrgYNQC+ZFsjIWOBAoiOYrSTirSl29VVE1UvkkWgAGvaq+CMhSToNFIproK+SfvQQqUgIiD27ZssV++MMfuqyr//qv/+ryGQgszNcmt8KqVSsBB0/Zf/7xj+zue+6xRtXO8a0iJLDgAIKUmZIryc0vbkKt1dlER6sF1ZliBm61LFDgwIG0ZVZhyna+wDVhBhyEWXBAYiSAghr3HbOhQWuPjVt7bx0Z1eAZIA+f8MiJx//xEqgYCSjcbxORDT/60Y9clUYVYjpw4ICzKkQkw4oZbI6BiHio7LFLcJ28+OKLzOfHtnHDBgcOlM3Rt8qQwIIDCJPFqgRLsdSoBReOWGp0gATGNAECHoHzu8uKkFGYbMqsrBeYNUEgADE48BNmUyMLJOk3qIeAEs4XC4b6LDF02RLhGBEKNydJ0R6+eQl4CVSGBGqp9Lh27VqnWFvIF/Dvr71mfyTVsUIg5wtIUJ6D+6mv8N3nniUZ0lO2YfNm0rVTR9bdrCpDzn4U5LxZyEJIE8qQutZn6cN7LBygKpoIivK7y3ogIKDJ88cBBnIBOGM6nzkrA5/P9+bmKeSjpmdNWOBI79V4ESATIadwfNTSl09b6vRhS6y+C0bnzOlWMwf7v14CXgJ3SgKyJCjzYdMLLxAK2GorIPi9/8EHdvDgobInMSpmzqpWuXz5crvvvvsgXT5rT5DnYAn8gzgcC98qTwILGiBI6aUunbP0mRME+A9nohekKFlVi4YQi8l6gBUBcOCUKUmN5J+/0TIRDwIQavMB3LqxZgccEq4YMMdoToESOAocZRGCMii6z7UfAkmfO2XBwc8s3U14ETwEj+bdZfd/vAQqUgKKbugmLPA7gISN69fbctIl/+63v7MjR47YZZIeKVNipTQVqWttbbWNJEB6jCJRLzBmVWeUJcG3ypXAggUIoTR+/xWzs8ctHKH2AW+da0vaEfeCM69LQfJWrxXhwGb+sJrmtREaGW1wdR70lhBKZ23IKlg23dmWBS7OJJB97cYukKNpChyg/JX5LAIF2q65OnCE9SADIpizQNOli2ZH9lvyrvsgLJJq1VsR7uz19Wf3EshDAgnqNqwnLPC/Ub75QVbmb775pr397nv2FdUgVXdBYZHlzn440zBl6VDa5nbSyT9CBclvUoDq/gcesGVLl5IyP5MwbqZj/fY7L4EFCxBSoyOWOnHAknvex80whIJEWVKjIZMDQYoRBZpFBJnwx0hxSrHyGoXrQISsC7yWgtWzU8B8fl3h3sFr6MbN+TVe8QvU3PyygMdZC+IadGbsspy4zwWAon0FJHidmsggh/DqJUsd+twSbZ2UpSS9VCVM1I3W//ES8BKYTgKy9FVD+Ovp6SHbaaOtpirjvZRIfvOdd+2NN95wlRYV6SB+gh7lBguKtogeq1evtm88/pgDLrsALytWrrLm5mZXWnq6ufhtlSWBhQkQ0OTpc1Q/O7LXkpcu4F/HHKAgBqf1I5Cg9xntGFkQ5I53BASetMJ2gADlKh3plLAUrIBGig0oYWlWAQYd77QsT+VsOpcDKwIEAjhZYkFEPnTjEIGC5sYfAQGNU/PQcVm3gvgYak7/85m6EqExvEK51r1fWKITN8PGGgsafR50Jyj/x0ugwiUQw4yvEME63A2tXV22hqiARyj2dODrr2zvl1/aAfgJKsusUvPlIjMqp0Fvb49tI5fBXXfdZVu3bbO7Kbq0Ap5BB4WgqnzRpQr/Ft08PDh7Uh0LqCUnLHXhpI39+V0b3/OxpS+cAyCkLVZNsSF4MHITRE0r8Mw7lD4YIgAuXffXO2XKe+3DTteVKwBBijQCBdr/ep/aj84jZRydp5Bnd1UipZ4dg7gSGrPqRDhFn7WAyAWi/d2YriMVtuk4QUCe3ZjkItE25uaAQTQwjk2O0fcYo9d8SFJSS4346t2PWXzNZqphUm3qpgOiA/2zl4CXQCVLYIK6DefOnLGv9++3Pfv2uQyMSrCkypAXL150mRlHRkYKmoJyGIhD0AQoUQXIDh693V22jgiLHbt222ZyNoiQqM89n6kgEd/xg+Y1QBC2CaWtJyheAiExnCBhyMA1G9vzRxv77M+WPns+o+ERc6zmVoAQSV/KU8o3IPZfCtS95kMHGAAOfIxSFV8hAw50XFTMKSICOrDhgESkhHWU9GoGNahf9x7lrOYUNh/pOXqjXa+/Z6Xv9snyCBxAERCQApeCF0gQuVCdRePiTQYkgAkEBOjbAQT1xW7RmHXITY0P06SlTgEQQpWcRw4JEiVVbd5tiW33W3zFWotRMjvE16mTO1nM2NlNPfs3XgJeAndYApFrob+/386cPWsnAAgHDx60/YCGw4cP2fnzF0hLP2Ejo6MUuRsyAQbxFqY2uQ3EJ9CjpoZqrk3NuAxW2LJly20NoGDDurW2hqRHvbg6GlpaLUFkgu5/HhxMleT8eT+vAEIorSdAkEJr8wixFiQHMYn34Ua4dMZSfUQsQLRLnz1uKZnKR9lPTYozB0DQLpHCliZ1IAFl7JSwFLK0MA+dXp873ZhVulGUgAMA7JNRnhlF7rQyytYpfgCI3guEqC/tn1H69OlcH5ljHSFS58mu8iOXgCMbaj+OFQi4YUGYZlw6hc6RBT06jxsL26ZtdJtkEZFWQjZe6xwuJLSmzmIdnZZYtdqq1m0x61oOj6PW4twc4vWNzAXzhDJSxfHfxJXSWifyzUvAS6ASJSCgIMWvhzgJeqi2g6wJA1ev2LETJ+3goUN24sRxV/p5qnG5trbO1uO+UCTC0t5e6+nqsGVLllpja5vVQDiswX0gUqIsC4HuB+5GUomS8GPKVwLzACCgsfQfYJAE3drVC8TrAwYunzPru2Qh71NXBwEDwwAGrAhD41RvRNNRpEmmdddQeLMBhJsEpvO5c0ppy0qR0azXLQjqL6sLI0XtVuxszyh9gQIdl+nHoWj6EbZRuw4iZAFQ/2yPAIqOj4DITfupP41JgIV9IguC62+qBcFZO2706U6a6w/9JomIcgBh6n76sTfUWaKF9KdKoEThplgTz209FrR3WrxjiRmPoAUgQbrmyGLCCKf25N97CXgJVJgEVPBJ9RzkihgiLFIWhOHhIbbdGvmgUEW5FPSoI6mRAIGyIcZ0j3CrqAqbnB9O0RKoSIAgS4GiEGzwqoXXLll64ApA4BqEw4tk/OP12DWAAFnD+smOODhkaao3qmVWzbxA4d3UpNBnsSDctD9vwliVhVUovHE0Z1R/XWZ9GSWkoDlZ5Pt35+WcDjRwLinxyftoPJG7QnpTij+zUucDWSLkOtAh9J/J0jQJXLhzZbY7l0r2PNrfWS10nPqTP0EtCw4yb/L8y6EpSmKLg+DmN/UwjYGHs3owxlgthZ2aGgEKTc71YNWtlH5sswTEKAo5WLy5nTzXREE08hqLg795TBWof+8l4CXgJVD5EqjIKAYHEEZQzJflOjiFteCspc6dxnLQR8KjQRROCj1LWeJhLAaj0m4IGgXmlK+U7OSG1g4wjcWaiLlNAzrGsELk0Zz5vI5cAOlxFH7WH4ceNvqXsjTM99GqP+ru+nvpf6wHsg4IDGi7/ugpA7T1OmOAcx9d385ueq2HlL6Ag+sns931z2cuAoEdZaVQA2NkQQIvEjUWYvIPhFImRvkwMqO4XW/9o8lUSz61Fg4y16sDmTFqEJNb5lSuuxDORwBAC1Njlrzax5hhf9Y1Wvpqp8V6lmNR4NrpmlThjlAuhcykJ/fmX3sJeAl4CXgJVLgEKhIgSKEEmK1Mir1zqWPRB02tFq6GjDjQj5JH8aH8YqRRTg3BRcAc5kBDDNCQZJ+sMpMfzOowjXcusVgL4Xrnjlp45vCcL4kDBNmjXDZCXocao1bTAgu0tDgGcilI8QukkJdArgJ9HrkRNC6nr90qP/qcjShjByIEBshb4MiHbHPnVZ/aRcCEc8qKIH3rPhOIUMs+6WUohVzXTB+AqIFLMg1o88wtlrCwqd3iKzdYbGTcUhCYAkO+yTH64FziGCTgGIBC0lhPgqoEFgRMivAQguaODP8APgJ2RyJFaize1kthrDoIjQAyHeubl4CXgJeAl8C8lEBFAgRV86rCPC2A4DQqyi4UMVGaEp+ZtqUh2qSGBiw+gSLs77NgdNCBhuTV85l9uRwxwEFcxDoS/gTD/ZYavOIWtrNeKbRvKHt/Dqa+FLTTy5GOFvlQYCFS1nqbVeBO4dOd7AY3trGrAINW2jrMAQm5GzKvHZhAKTuwQV8CBa7JXBC9jp6zH+kMwfiIsyDIKnB9v+ufz/AiUW1VG3ZY0Lsaa80FCyB7pqjLkCYqJI4MY/AL3AA1XlwJRtijgEKigfAlgQAnKzeBDLDTZLRNvskIQc1war/ZS8BLwEvAS6AyJVCZAEHaUIpn0gp0qi6EPGFBMgMaAhRZgBsgBDwkpCAFJGgBK9+gpt4p+/TpI5ZmtZxXk3JtBlTgY7cRijzdGvFzi/J1CnzyIMk54LZlhuJeq3zy9V30IvuZG5OzKvCK7TpOU9Aurg+3Q+bP1PeTPtLeRBkwdiwCQS2WhEEsCHk0jSqobbRE91KLtTHv0TWWoHaFs0JIhlglIh6BLBTOhaHxEsUQbc/jNH4XLwEvAS8BL4F5JIE8NWblzUiKKU7WLtey2bmkUKdr8pmHWtXm2RxBUSF+xP2HclMU0K4rcin87PHXt/F+JsUa7RM9z/XUgSwtAeWbkUkYuSDy7CRg1R8nSsGU78AgGk7TorlM85Hf5CXgJeAl4CWwgCRQmPabbwJA2zqfeAQo5tv48x4vZoc05g6BhHybXACEKjnOR77H+P28BLwEvAS8BBa8BBYHQGBlHBJ6F4qwmE9DaUphiog4v5qAEHNsaM1WYszj8iqhSTNZErNWmPk1Xz9aLwEvAS8BL4FySSAPDVKuU9/efh3pME+FH5AVLCDqQSb32Zt8CBJjmcGEYzHmcQ7mKD5BrLU7T6sAfcqKkKdsZpeH38NLwEvAS8BLYCFIYNEAhDldLMfAh9+Qhz42iHphHSGURAKUrQEOwlpCF6sJJ5ylKZojNjFCdjPlQfeXdxZx+Y+9BLwEvAS8BGaQgNcgMwmGZEMxmepVZyBXkxJW5EC+ERK5+prxM5AKGQnzAiHOGuAv64yi9B94CXgJeAl4CeQlAa9JZhITK/BYUwdm+lksA1LILvQvH3fETCebZbssGRqHAwmEL+YwbYTVDRbWY9HIVl6cpWdnZYgpHbIKL/nmJeAl4CXgJeAlkJXAogEIStjjlKBb6efhO9AueeymXA3K0hiUM0ICK0WsmaRE5CgI66l7kIsbwZhDcj+kqYUQ5qP0yXMQh68Q4xjfvAS8BLwEvAS8BCIJLAqAIHCQEPGQLICOLzALIS/zcT7oADFqZyV0mqXPSOAFPysSI8F5coGDqHPG4sCQG1PuebAn4xffYlF8FSIJ+WcvAS8BLwEvgVkksGi0QkxZ/2SmV12BWUwDQW0DFQk784ximEXCd+hjWQ9CajI45X+HxuBP6yXgJeAl4CUwfyWwaADCXC5RDNJhrB6Tfh6r9QCXhWo+zMpVmMsASrGvijjUNAAQPLegFOL0fXgJeAl4CSw2CSwqgODM7rIg5La6z+k7oHoPKmYkol+5m8CIVWEFmcWdoSqWrpJlCedZ7rn5/r0EvAS8BLwEKksCiwoghPX18BAwu8/mb9fnMtHnea1uW74BeBQxsh66xEY5xhYDtCTqGwAJAkOzoAR9LkuJojF88xLwEvAS8BLwEshKYHFpBciErjzxLDozrG+0UCWOJ1WTrIhvjBR5HmNSIagAS0PQSsQDKaNztVAppVuJePBRDLnE5D/zEvAS8BJYdBJYXAAh38uLKV9ljVlW53tEefdjdR9rbLM4vIi8mywCckfMyqPQfpRwnnW/vM/sd/QS8BLwEvASWAASqBANOE8lKSBBxIPViQyo6IjyNFkEYvXN1FjgPL55CXgJeAl4CXgJ3AYJLCqAIJJiJtpgJh8D21H0Ih7m5YqoqrWwqdPSJBoKq2VxKHPT+GXZmI1XkO8wHNciD55Cvv35/bwEvAS8BLwEFowEFhVAiDW0uIgDJU6atqF4VRQpaGqH5AehcTYyo8IhtI9CCksZGjHt4MAuWBGU9TCf8EuBCDfPXGAigWuBehNK45xrtxmG4zd7CXgJeAl4CSxgCcygKRfmjMXqz21BYN7OykDo4kwg4hbRzGSNuGXH4jfg0nDjz0ObywoSb+mymONSzHBqgQh4CvG6empNlc9FMsPZ/WYvAS8BLwEvgQqWwKICCGW7Dihax0WooqpjpTRIhzE4Cy73Q64xMXaBgxmtKrmO9Z95CXgJeAl4CSxYCXiAUMylVdhkbY0FNfACSGscquxzOZsKQuVZpbGcw/B9ewl4CXgJeAksfAl4gDD1GivPQJ4hf0E1JaFb4Ss0NLEKz51vYOppCnkf1pGfgRoROZMaaeyaA9yIUG6DWXkUhYzEH+Ml4CXgJeAlsNAlsLgAgnz3eszU+CxoJNdAg8IJc+wXHa++4CrIPJ/H3tFRhT9L2TtuxAxnY3PQQNnmBoAE3AKBiTBnCmgdwJwLH5E/0kvAS8BLwEtggUpgUQGEkERDISWfZ1xVS1lq1Z1HtsKK/T6MjZuNjjI81L6qVwrEzNRwWbjU07fB+jHTEPx2LwEvAS8BL4HKlMDiAghi9CulcC6lWZnXKf9RaW75RmA4DkUdWRQX1dcgf1n6Pb0EvAS8BBaxBLxmmHLxXQ0DpSjOo7nESzLhz9XPL6ACnyBfrkM0FOfK0Gp/RqMAFhDyNxiFmhY0CIoE4p+9BLwEvAS8BMomAQ8QJolWiZFi+O1V98Ctwp0ynllEMawRCSUumqOJPlB56BUbM9aMmbX9pJFlXsYhRSZI6+yqNM5ynDOSUPZZeR0yiZxu6Q4MkflcqZx98xLwEvAS8BLwEpgsgZm13+S9FsxrEfJQhjn0YaBkREQCqFiTq+iYy5og07yrwZCjw2lkF2sko+OStWbN3RmewDT7TLtJCp2UzmG9sh/mTmykVNEJqlIGpIKeqVJjgPVDAGe2vqYdi9/oJeAl4CXgJbCgJbCoAIJW4DFCEp2CBQjkaiGr6tCR/MogovoWs55VFnT2Ziou5hrILZ8pfFEukNnGpQRIzFEAZ4a5CggF5G4IXKroW07kN3gJeAl4CXgJLGIJzKZlFpRopDBjpBW2Gnz0eeY6KK0AsDSQbTHAhRFr78qEVM7niInSCsf35iXgJeAl4CVQQRJYVAAhnBizcGTYbIJQwDB962WQL57QP5dg6NZPb90ikOFW6HmKUVaJWsz+ja3O/B+rASzMFajg1hCR0mL5uDXYJ0fYZphKWnpowNLIIwzDW+fnt3gJeAl4CXgJLFoJ5KnZ5rd8wnTKwrERS585ZqljX5oNXDJDOd7cUN4i9EEgNBR4TqJCdCAkxTT7u+OibbM9CxAovBD/f7x9iXue7ZCbPq+CI9GMiyIfYiQkxaCtA7cKERPTtPTgVZs4vMcmzp4AKPRbmEwCFKYBTtMc6zd5CXgJeAl4CSxsCeR2xC+AuQscTPRftfTRvZbe/2cLj+83G8OKYFNWzAIHDe2Ug0ahEiYYpvJQlLI46LhcrMcpMgwaUdZS2ACEsGMp7o451m9w51Qq5TwsCICRREevhQCe1JRxuLeApvDUQUuyX3Btp8WWrzNr7cyz1PV0HfptXgJeAl4CXgILRQILDiDIVJ4aI5OgVsSXzlrq/ElL952z9IXjFl48zfZr0147rehjKzdavI0SySjMdD4AYdqecmwkCiGOxSEOCMmUY26zZGO74yXYxEiOAwv8CPDiQEj7Ulwbhy0YG7rZtRICG4avAZr2WXLwigWABetcaumOLos3dxBlwTiJhIgTOeGbl4CXgJeAl8DiksD8BwgAgnBkyNLDAAKebXTEUv19Fl69aOmzxy158pAFQ31m6akuhUkXWix/iINV67ZRfAkXQz4tkcnKGIMPEOTFB6BTVv2xNvImtEJQRHnHa+txARBmqKRJuQCCrAW1ZDwk9DKY3hYw/YjFV5BFZOkai509ZuGZA7hWplhGsiAhDVCw8ydIRd1u6TY9iLDoXmGxjiWEe0KqJP+C408oEkRuEt+8BLwEvAS8BBa0BOYNQAAGOOXmyHS4DSw5liEbjo9bCiCQOnvYkpfPWdh3yYL+S3w2ipsgaUGKfXP51RUyiFIMVmwiedF6ih1RrEkN4BGkJtxzZsPNf0MiIRSNkFBURK7+rx+GkudcUsChwhzVlEehqRnlTzbG/sym6f8S2igQIXfE+AgkRYAC1ogpTpJbDtU+CYBFbOUGZHLZkkO4WrAUGGTNacc8MWzBFeR27ZylTuy3EJeLAWbiHd0Wx7Iga4SsHy5TI+RHkSUVcqlEUS7p0i0j8Bu8BLwEvAS8BOarBCofIMhCoEdyHAU3iCEgaTHnPjhtqctnHCAIr5wzQ/FpHxPRzin27EpZ2QRvyRlAuiStXB7FxAAACupJREFUgvXoXGKxdXdbbNNut9rmg8y1BGAEV847oDHtxdV+UvB6ZnzuORcvQOZ+JThSiGUU2sj+cjUohXJOZQ8A0ZxtdMgCFH6c5EZSzNMeI/AkAqbGRFOWxDg8hGDrA44vMXFwD66Xk/AwprgbpkwyTCO/IcDEGDK/fMrSR/a6iAi5RJwFpB2uQueyLGhot7iAkiwWkfym9Offegl4CXgJeAnMLwlUPEBIEYKXHsBP3nfWkpcABONjuBBYCfddcC4FvY9Vs4JF0edB23NXR0o51tpj1t7LylgPjm1G8alGQtTGRy3lzqfKiLM0AYPmJgukJAcvz7yzzss+8RrOo2MAKOIkhHVNuR0H7JtmnzhRE1L4gaweAidTm4CUrCjwLpLDQ5ZoQi7aT24Q5pjY/rCFuA3kSkhfQukTxZB3A3ik+/stmJhwxwUDVy0cHjATSGvrsRCwkCE4YlnxLoi8xep39BLwEvASqFQJVDxA0Mo8UFliSjUn8NfLOhBQsjlkVeyaFG0dpnflBsizqZZBrInVvFwL+Nbj14+F4ChAcuWCpY/uw8z+lYWs2qdrAW4BBwgcKuEPJEflUJixoTQDohdiMvm7yAf21DNm+6BBYZU5muaoqAeZ9Hkdkqo5k+J56jFYDUYGLXUSsuG+jyy2CrdJVyaUUu6AWHu3JRpwafQstxCXQ5p9826Aj2CY6A/cCar+GODaCSV3XsdwfwRyfzjLiBNI3t36Hb0EvAS8BLwEKlMCFQ8Q4lK6VRRPauZRhqYwSEU9BIQ+hqPDlgQcJOV/P/w5pL5juCxwW9zUUIDiAHSh2LsJU9Rq+ZacCjcd4N6IlCgFLUByvSkfgkiRyrsg0qM717SOg+uHGCRBR2wUF+DqhQyf4Man7pWiNVKfvGUTfJ5Ys9VispAATEJSKseISAg6epxFYcph/q2XgJeAl4CXgJfAdQlUPEC4PtIiXwgImAiLKGGRF52PnvcpRUBcI8oBU3nq4imXF0AWBEfkg89wc8Ncr5C/Nsh6a3dAatxENAKFnfIACMpoGMcMH2gFn22ORIjLIQ0RMGxog0jIebPcgWgfPU/eJOtDopUog/V342IZtPDCCcYKmXIyI0EEzYvHLHntvE0c2mOJlXdZvBsXgLJEwl+IKypBK36RC8VlUMEpuS6IxvAcgsmS96+9BLwEvAQWrwQWHkCQNlVUAc+Z9MG8J7QvCRBQ6KOAQPIqUQ5S6v1wG7TNMftRqvAOQiVRSkrhTmki38mN0L7MEuvvsSrlTGhE2UekvOw5pxx14y0AQb56F9J4Y2tGITfCX2jBbaAMj1MiIhw4SDMXkQazSCGGu6X67kdcL8m9uBzOHc/Mx32enT9zDkeYo7gUA7gTDjL27BySTeQ3aOu0AIuGi05QSKMATA3ZHeU2kFtHbg3cBzgWMtwOvffNS8BLwEvAS2DRSGBBAYS03AWQ84JrKEQiENKj+NhlBRCpUUCAJEmh8iXInSCFO0a4nwMEPM/W8Pu7UMgNu6yKcMi43AURGU+KeQDC3kiuZEcoWK3Wp6ucqJU8q/hwGh0svQw8sABCYTDCOZSFkfMq42P11gct3tBiyYNfkO/hIPMU8JnsEhE4wmIypEc0QTqE8GnnIDwqtwFgw4EWxpWGS5DEmmEtrSSMIj+DoiVEjMRKkhDnIgJDUVf+2UvAS8BLwEtgwUpgwQAElyyJBElpijEFPCfPkxsBIp4sBeEg7HtlUFT4o5oUux6smp3CzWy96a8jMqI8BQLC2nqXMMjlSVi2zmICCzqeFsJfSJGBMK1VvFj90zUlYqJIkyIYYonMcZN3i9U2kN65kUiGaRACOwYkeQqPf2khvIdUC+mgARpS1jGFL+IqCFrI/ti7mloTh10oZFouBsiVGQvK5DPd/FrAIwVgMj3UqDQZDvRZ7ForuRD6LOjBmkKuBxEcU1gcXGInRUX45iXgJeAl4CWw4CWwYACCTOlG6F1cq3kUelwrYQh9rrEY1jp8Li2GO0H5BgQU0hAktWJP0G+miiJmfawVAgdpgMj4Z++gnFnBj6NQp2tS4oQXxptaUO5TIh3ABAEpjWOkQ05V70PBw5OY4mYQsEkd20eSJRIzsbKvEjDIWhICwEpiXbPFV64nWRR8BIBBGqCSlDUh65KYbkgzb9OAOBQAEoevERPYsLSr+BjDBUEuyJkP9Z94CXgJeAl4CSwYCSwYgKASynFlG8wCgXh6fcaNUOClyvjgEQ/KMi4LAAmXFGLoUhWjNJPkZkiePWoqAJWmImLGejANCNFKHwBQtX47VoIbBMUbw6JPhW32rHTkR7twDLfINC4PQEP6+NeWTOFu2LjDEoQwBgrVVE4ERUMQWZFYuhpMkLY47pOESJlFNmclkcVArgXOMW3uhSLP4Q/3EvAS8BLwEqhMCSwYgOCUpJTYpIbqLb5Fq3Ce06yok9euWPoYlSEBBemzFIBSsiHlSphWITOCGnIEdK3MKHQlUpqmuSyES1ZbQC2IZP9F+hSPYBqwgfk/feQzm7h4wpIHPieSYosFuDyMAlNVVKB0KY+FaAAyJZn7NGP1m7wEvAS8BLwEFocEFg5AKMf1IprBZWyUKwFeQ+rssQz5kVTFylg4I+dAY2HVHQIOYkvWWnzN5sxqP8tbmDpUrdTj7bhENtxN9sYTFh79MgM6pu6oglMQFdPka7B+UktfOWsBORtUgTFUvQSyMhoPuR3izr3iYcJUEfr3XgJeAl4CXgL5SSCAyDbNUjW/gxfSXhJDmiyKJuWLD99lGYTcmD59BMIf9QiuUuzozBGyCUJ2zFUZUkJRpAKkxGDVFktsJCRyNXkIyGjoMifmEJpSF0/gspgQp+EUhENFLczWquvJrCiORFuGdwFvIqaS0koshcUikNsF14YSJcWIlmBws/XoP/cS8BLwEvAS8BKwRQkQBAZEMgwABKEqG1LPQTUdkpAcrY/wSCVNunyW+g9EQZC8KFByJREHr+cimAFTiasAuTEGHyLsxK2w8xuWWHsXFR/JnpgP+1/jwl0x/tXHliJVcvrMUcZF6OQYj2ldGPoGZ1wKcis4roDOo4JQzZ0QHwEKpHJW2WZlX0w4NwQkSSV7qoJwqBTWM1g1/G/DS8BLwEvAS2BxS2BxAQRcBgIEIZkHk1gH7Ao1Fy6rKiQFjq4ABq6RK0EKWYCAB4xAFyaJdr71WyLinpSrCIKOxMhryjgH3auIKthCUaSVVkX2whjRBnPKH+BAwrClAAdK+Zy6gDvj1CFXY8GFbCrBk4CKmkCLHlObIxUCBMi6KBBgjR1kamzlNfUY2qi82EHq5c7lJH1SbQbGR2SFojXyAjFTz+Xfewl4CXgJeAksSAksKoCQPPaVjZN62K5cIs4fMKBUxZQ9DrVCl3tB1oTpFO40lz6sIyKBVbq4A6oGGRKmGKeugtIYByQvMoU2aoUuZV1AUwilUinL1ZG8dM4CQIzKW6f6ADPXlNMhSeIknmcKrZx8Til/l4iJDInVFKpibGELIZxYF2JdvZRtXkoExNoMT2Lycf61l4CXgJeAl8CilcCiAgjpi6RZZkVuw4MWzBh5kOd3oRolqyqGDU0ZlwJuhUwiJJRxCZtcGykyPgbwE8IBIiiGcIMoYyNWhCBr7SjodLgYXAZFLAgxwixjuCAC5XnwzUvAS8BLwEvASwAJLCqA4K+4l4CXgJeAl4CXgJdAfhIozP6dX99+Ly8BLwEvAS8BLwEvgXkqgf8f29erR0fRiDkAAAAASUVORK5CYII=;" parent="1" vertex="1">
          <mxGeometry x="1145" y="2175" width="85" height="39" as="geometry"/>
        </mxCell>
        <mxCell id="G2r3sRdEXv-sqOphE8NE-42" value="" style="endArrow=classic;html=1;strokeColor=#B5739D;strokeWidth=2;dashed=1;dashPattern=1 1;" parent="1" edge="1">
          <mxGeometry width="50" height="50" relative="1" as="geometry">
            <mxPoint x="895" y="2209" as="sourcePoint"/>
            <mxPoint x="1008" y="2209" as="targetPoint"/>
          </mxGeometry>
        </mxCell>
        <mxCell id="G2r3sRdEXv-sqOphE8NE-44" value="Workflow" style="rounded=0;whiteSpace=wrap;html=1;strokeColor=#000000;" parent="1" vertex="1">
          <mxGeometry x="1031" y="2181" width="78" height="33" as="geometry"/>
        </mxCell>
        <mxCell id="G2r3sRdEXv-sqOphE8NE-46" value="kfp convert python to workflow&lt;br&gt;yaml" style="text;html=1;strokeColor=none;fillColor=none;align=center;verticalAlign=middle;whiteSpace=wrap;rounded=0;" parent="1" vertex="1">
          <mxGeometry x="896.5" y="2165" width="107" height="32" as="geometry"/>
        </mxCell>
        <mxCell id="G2r3sRdEXv-sqOphE8NE-49" value="" style="edgeStyle=orthogonalEdgeStyle;rounded=0;orthogonalLoop=1;jettySize=auto;html=1;strokeColor=#000000;strokeWidth=1;" parent="1" source="G2r3sRdEXv-sqOphE8NE-47" target="G2r3sRdEXv-sqOphE8NE-48" edge="1">
          <mxGeometry relative="1" as="geometry"/>
        </mxCell>
        <mxCell id="G2r3sRdEXv-sqOphE8NE-47" value="Kubeflow Jupyter Hub" style="rounded=0;whiteSpace=wrap;html=1;strokeColor=#000000;" parent="1" vertex="1">
          <mxGeometry x="489.5" y="1877" width="120" height="60" as="geometry"/>
        </mxCell>
        <mxCell id="G2r3sRdEXv-sqOphE8NE-48" value="Jupyter notebook&lt;br&gt;&lt;font color=&quot;#6666ff&quot;&gt;(assign default RBAC to call k8s api to&amp;nbsp;operate kubeflow CRD)&lt;/font&gt;" style="rounded=0;whiteSpace=wrap;html=1;strokeColor=#000000;" parent="1" vertex="1">
          <mxGeometry x="491" y="1977" width="118" height="94" as="geometry"/>
        </mxCell>
        <mxCell id="G2r3sRdEXv-sqOphE8NE-52" value="" style="endArrow=classic;html=1;dashed=1;strokeColor=#455EFF;strokeWidth=2;entryX=0.5;entryY=0;entryDx=0;entryDy=0;exitX=0.5;exitY=1;exitDx=0;exitDy=0;" parent="1" source="G2r3sRdEXv-sqOphE8NE-48" target="G2r3sRdEXv-sqOphE8NE-2" edge="1">
          <mxGeometry width="50" height="50" relative="1" as="geometry">
            <mxPoint x="747" y="1970" as="sourcePoint"/>
            <mxPoint x="472.90200000000004" y="2538.04" as="targetPoint"/>
          </mxGeometry>
        </mxCell>
      </root>
    </mxGraphModel>
  </diagram>
</mxfile>
